<?xml version="1.0" encoding="UTF-8" standalone="no"?>
<!-- Created with Inkscape (http://www.inkscape.org/) -->

<svg
   width="500mm"
   height="500mm"
   viewBox="0 0 500 500"
   version="1.1"
   id="svg1"
   inkscape:version="1.3.2 (091e20e, 2023-11-25, custom)"
   sodipodi:docname="cervello.svg"
   xmlns:inkscape="http://www.inkscape.org/namespaces/inkscape"
   xmlns:sodipodi="http://sodipodi.sourceforge.net/DTD/sodipodi-0.dtd"
   xmlns:xlink="http://www.w3.org/1999/xlink"
   xmlns="http://www.w3.org/2000/svg"
   xmlns:svg="http://www.w3.org/2000/svg"
   xmlns:rdf="http://www.w3.org/1999/02/22-rdf-syntax-ns#"
   xmlns:cc="http://creativecommons.org/ns#"
   xmlns:dc="http://purl.org/dc/elements/1.1/">
  <title
     id="title1">Cervello</title>
  <sodipodi:namedview
     id="namedview1"
     pagecolor="#ffffff"
     bordercolor="#000000"
     borderopacity="0.25"
     inkscape:showpageshadow="2"
     inkscape:pageopacity="0.0"
     inkscape:pagecheckerboard="0"
     inkscape:deskcolor="#d1d1d1"
     inkscape:document-units="mm"
     showguides="true"
     inkscape:zoom="0.17705703"
     inkscape:cx="-406.64864"
     inkscape:cy="-53.655029"
     inkscape:window-width="1920"
     inkscape:window-height="991"
     inkscape:window-x="-9"
     inkscape:window-y="-9"
     inkscape:window-maximized="1"
     inkscape:current-layer="layer1" />
  <defs
     id="defs1">
    <linearGradient
       id="linearGradient72"
       inkscape:collect="always">
      <stop
         style="stop-color:#fff100;stop-opacity:0.32661289;"
         offset="0.51861042"
         id="stop72" />
      <stop
         style="stop-color:#ffaaaa;stop-opacity:0;"
         offset="1"
         id="stop73" />
    </linearGradient>
    <radialGradient
       inkscape:collect="always"
       xlink:href="#linearGradient72"
       id="radialGradient73"
       cx="199.50336"
       cy="256.63502"
       fx="199.50336"
       fy="256.63502"
       r="172.06257"
       gradientTransform="matrix(1,0,0,0.63579939,0,93.466632)"
       gradientUnits="userSpaceOnUse" />
  </defs>
  <g
     inkscape:label="Livello 1"
     inkscape:groupmode="layer"
     id="layer1">
    <g
       id="g61" />
    <g
       id="g75"
       transform="matrix(1.2927953,0,0,1.2927953,-7.9302234,-137.98904)">
      <path
         style="fill:#ffaaaa;fill-opacity:1;fill-rule:nonzero;stroke:#000000;stroke-width:1;stroke-dasharray:none;stroke-opacity:0.983759"
         d="m 272.94821,453.06073 c -6.78601,-3.83521 -11.8757,-8.09161 -17.71646,-13.21305 -24.61891,-18.46524 -30.78186,-49.39095 -42.73089,-76.42654 2.89116,-8.57828 8.35235,-10.67512 20.18056,-6.31767 12.51636,27.16195 25.19667,57.96558 49.81558,76.43082 5.84076,5.12144 11.86442,10.12501 18.65043,13.96022"
         id="path73"
         sodipodi:nodetypes="cccccc" />
      <path
         style="fill:#ffaaaa;fill-opacity:1;stroke:#000000;stroke-width:1;stroke-opacity:0.983759"
         d="m 233.00952,357.10902 c 3.65714,9.89263 16.69214,18.15278 26.73801,12.78225 2.7031,-1.70295 6.68822,-5.60418 7.36983,-8.70143 0.97902,-4.44866 -24.33054,-24.02278 -34.19038,-13.41738"
         id="path30"
         sodipodi:nodetypes="ccsc" />
      <path
         style="fill:#ffaaaa;fill-opacity:1;stroke:#000000;stroke-width:1;stroke-opacity:0.983759"
         d="m 236.82872,344.07176 c -8.30881,-20.9694 107.64414,-51.12488 107.07384,-38.03022 -1.87113,42.96222 -59.34807,71.86206 -93.9231,49.08681"
         id="path3"
         sodipodi:nodetypes="csc" />
      <path
         style="fill:#ffaaaa;fill-opacity:1;stroke:#000000;stroke-width:1;stroke-opacity:0.983759"
         d="m 248.57871,349.22535 c -32.74704,19.74109 -82.38233,24.05088 -95.05161,2.29624 C 110.45392,370.66523 50.592549,347.0892 48.568088,331.09371 25.418159,315.65938 35.387525,307.33945 45.009506,267.60041 18.888778,241.99991 20.815209,211.86762 58.077409,201.83669 c 25.722716,-32.99485 -5.186207,-27.02886 95.562091,-36.2676 33.05951,-6.94558 51.22057,-28.52266 69.43548,-10.79706 30.46896,-14.03164 41.63926,-7.79287 55.53074,13.13925 36.14229,-6.17668 11.63499,4.11146 31.6355,13.96978 53.87635,-19.36161 70.2056,45.34384 56.96254,69.08746 -2.89106,44.5851 -10.58868,50.46697 -53.27737,59.99782 -26.20871,10.53005 -38.62155,22.66319 -58.42903,34.39067"
         id="path2"
         sodipodi:nodetypes="cccccccccccc" />
      <path
         style="fill:#ffaaaa;fill-opacity:1;stroke:#000000;stroke-width:1;stroke-opacity:0.983759"
         d="m 271.79824,357.02997 c 8.8089,-19.4929 28.51906,-21.12783 46.11717,-29.50038 l 0.37892,-0.26922"
         id="path4"
         sodipodi:nodetypes="ccc" />
      <path
         style="fill:none;fill-opacity:1;stroke:#000000;stroke-width:1;stroke-opacity:0.983759"
         d="m 289.90189,347.80754 c 12.74619,1.83572 27.93528,-1.65923 34.56113,-13.64585 l 0.33956,-0.9997 0.21632,-1.04501"
         id="path5" />
      <path
         style="fill:none;fill-opacity:1;stroke:#000000;stroke-width:1;stroke-opacity:0.983759"
         d="m 267.1132,349.30188 c 15.74907,-12.83668 33.74649,-22.45423 51.51018,-32.07281 l 1.53888,-1.17624"
         id="path6" />
      <path
         style="fill:none;fill-opacity:1;stroke:#000000;stroke-width:1;stroke-opacity:0.983759"
         d="m 51.648113,278.50756 c -2.115625,9.8824 -7.275599,18.98572 -8.607768,29.01167 0.109663,9.03055 7.189593,16.70813 15.238911,19.92802"
         id="path7" />
      <path
         style="fill:none;fill-opacity:1;stroke:#000000;stroke-width:1;stroke-opacity:0.983759"
         d="m 61.641508,330.99623 c 6.729151,8.96838 17.631531,13.53869 28.354307,15.58824 7.713877,1.46697 15.567105,2.21105 23.405285,2.51398 10.50757,-0.0517 21.16411,-0.87953 31.17626,-4.27959"
         id="path8" />
      <path
         style="fill:none;fill-opacity:1;stroke:#000000;stroke-width:1;stroke-opacity:0.983759"
         d="m 153.3566,340.89623 c 16.42191,19.64332 44.91229,17.39246 65.63641,6.64637 15.08396,-5.61312 29.65881,-12.47345 44.19757,-19.34825"
         id="path9" />
      <path
         style="fill:none;fill-opacity:1;stroke:#000000;stroke-width:1;stroke-opacity:0.983759"
         d="m 249.9283,344.44527 c 14.47049,-14.8177 32.18257,-26.0381 49.6157,-36.9701 11.09322,-5.73889 23.1658,-9.6262 35.56166,-11.22236"
         id="path10" />
      <path
         style="fill:none;fill-opacity:1;stroke:#000000;stroke-width:1;stroke-opacity:0.983759"
         d="m 328.19435,302.79057 c 23.56426,-6.00624 27.02259,-34.21732 29.13962,-54.35661"
         id="path11" />
      <path
         style="fill:none;fill-opacity:1;stroke:#000000;stroke-width:1;stroke-opacity:0.983759"
         d="m 56.878301,211.26226 c -10.616917,2.07269 -20.828948,13.55348 -15.962246,24.61238 2.644277,7.83133 7.013796,15.91915 14.841498,19.56404"
         id="path13" />
      <path
         style="fill:none;fill-opacity:1;stroke:#000000;stroke-width:1;stroke-opacity:0.983759"
         d="m 51.274527,273.37075 c 0.08916,-11.19756 -8.019682,-19.62676 -14.196244,-28.01887"
         id="path14" />
      <path
         style="fill:none;fill-opacity:1;stroke:#000000;stroke-width:1;stroke-opacity:0.983759"
         d="m 63.39946,214.50151 c 10.7708,-53.28241 81.21594,-48.71396 60.79884,-32.70939 -17.29155,2.59414 -39.390753,4.33965 -45.611542,24.12621 -1.027727,2.12934 -1.970893,4.29798 -2.903652,6.47013"
         id="path15"
         sodipodi:nodetypes="cccc" />
      <path
         style="fill:none;fill-opacity:1;stroke:#000000;stroke-width:1;stroke-opacity:0.983759"
         d="m 71.85272,204.99159 c 6.516842,17.56495 -28.428979,12.86891 -20.992137,31.18856 2.835265,8.75866 17.307247,10.05335 11.706079,-2.01173 4.983537,-13.04333 26.719585,-10.2597 27.959083,-27.62605 5.722271,-11.50274 16.542345,-18.96179 29.404895,-19.91021"
         id="path16" />
      <path
         style="fill:none;fill-opacity:1;stroke:#000000;stroke-width:1;stroke-opacity:0.983759"
         d="m 51.741509,244.51132 c 12.030576,7.35862 11.607403,23.45351 6.181094,34.80408 -1.597494,8.9629 -12.766769,26.12004 0.186143,30.16683 12.103191,-2.86893 2.300317,-17.34853 6.982778,-25.65142 2.496772,-13.51235 8.755217,-27.46969 4.73602,-41.21914 -0.655214,-5.63691 2.84351,-10.26957 6.944153,-13.60412"
         id="path17" />
      <path
         style="fill:none;fill-opacity:1;stroke:#000000;stroke-width:1;stroke-opacity:0.983759"
         d="m 131.4218,175.53725 c 16.76388,3.18274 33.36087,-3.01079 48.53788,-9.51955 10.05501,-3.88139 19.57513,-11.80696 30.99891,-9.9045 5.64253,-0.0795 8.92666,7.92518 2.06357,9.35037 -6.83573,2.31199 -14.36166,1.68264 -21.04189,4.66823 -9.84088,3.23156 -19.87144,3.89479 -28.528,12.37807 -2.60987,7.32501 8.08977,6.11977 12.08703,4.11018 8.32633,-2.25495 25.51069,-3.66525 33.25601,-7.72151 13.75784,-6.33438 17.41181,-15.88699 32.15589,-19.99104 5.86723,-1.10865 12.30011,-0.55672 17.4016,2.76112"
         id="path18"
         sodipodi:nodetypes="cccccccccc" />
      <path
         style="fill:none;fill-opacity:1;stroke:#000000;stroke-width:1;stroke-opacity:0.983759"
         d="m 98.813206,210.04811 c 6.770754,-12.35959 19.596984,-19.68525 32.207434,-24.91024 5.88774,-2.46029 11.76466,-5.08251 17.88445,-6.88038 4.50478,-0.8734 10.29093,5.15288 6.35556,8.99133 -2.95338,2.04146 -6.85408,0.81005 -9.98711,2.47573 -8.93218,3.16848 -18.74324,4.42721 -26.6744,9.99729 -2.93115,1.43829 -7.83313,5.70255 -3.56483,8.57889 4.75079,2.95439 10.30807,0.25933 14.45854,-2.48313 4.04936,-2.67961 7.94478,-5.63024 11.96811,-8.31752 4.35752,-4.10902 10.9314,-6.47867 16.80457,-4.82272 3.49225,2.5518 0.19394,7.00934 -2.76321,8.33295 -11.49084,7.88754 -25.34306,12.66939 -39.36981,12.27107 -3.72092,-0.0656 -7.44067,0.11696 -11.15514,0.31584"
         id="path19" />
      <path
         style="fill:none;fill-opacity:1;stroke:#000000;stroke-width:1;stroke-opacity:0.983759"
         d="m 81.067925,243.01698 c 3.633037,13.65079 -6.767809,25.50964 -6.14871,39.00873 -0.327481,8.71594 0.62855,17.48668 -0.61304,26.15947 -4.770739,6.4738 -14.366151,9.17144 -21.817502,6.18651"
         id="path20" />
      <path
         style="fill:none;fill-opacity:1;stroke:#000000;stroke-width:1;stroke-opacity:0.983759"
         d="m 261.32264,165.40472 c 4.77983,5.67195 10.58827,12.94917 18.99901,11.26638 6.31227,-1.40655 14.46184,-3.45464 18.27245,3.54107 3.69308,5.16169 7.86014,10.08112 14.79788,9.95803 2.21534,0.35251 4.44662,0.59066 6.67688,0.82509"
         id="path21" />
      <path
         style="fill:none;fill-opacity:1;stroke:#000000;stroke-width:1;stroke-opacity:0.983759"
         d="m 323.07307,182.80178 c 11.35098,5.81865 26.28384,7.65458 32.96854,19.91714 6.78317,9.67854 9.66913,21.77508 8.4865,33.48617"
         id="path22"
         sodipodi:nodetypes="ccc" />
      <path
         style="fill:none;fill-opacity:1;stroke:#000000;stroke-width:1;stroke-opacity:0.983759"
         d="m 233.78551,177.25432 c 9.37554,-5.78003 22.67385,-6.29466 29.12545,4.00177 9.91806,7.56793 24.16387,-0.0234 33.43889,8.87135 8.0009,9.25602 20.01021,8.43566 30.99857,9.33197 12.28618,1.44212 25.33523,8.79059 26.71191,22.30758 0.49209,5.69112 0.58726,11.67974 -0.34455,17.30181"
         id="path23" />
      <path
         style="fill:none;fill-opacity:1;stroke:#000000;stroke-width:1;stroke-opacity:0.983759"
         d="m 62.949055,319.78867 c 22.147308,20.18246 54.775315,20.59324 82.467975,14.40587 9.60081,-1.55562 19.80284,1.14632 26.24523,8.75639"
         id="path24" />
      <path
         style="fill:none;fill-opacity:1;stroke:#000000;stroke-width:1;stroke-opacity:0.983759"
         d="m 223.40377,369.84905 c 3.82074,12.79109 10.67125,24.50212 19.3619,34.57148 1.14495,1.67431 2.24207,3.38152 3.42678,5.02847"
         id="path33" />
      <path
         style="fill:none;fill-opacity:1;stroke:#000000;stroke-width:1;stroke-opacity:0.983759"
         d="m 290.64905,446.06037 c -19.09649,-13.46834 -35.63461,-31.03315 -45.39231,-52.43128 -3.84837,-5.99713 -7.98942,-11.89267 -10.64537,-18.54986"
         id="path34" />
      <path
         style="fill:none;fill-opacity:1;stroke:#000000;stroke-width:1;stroke-opacity:0.983759"
         d="m 235.35849,402.35094 c 2.71557,7.35994 6.65117,13.88563 11.11027,20.18625 5.73332,5.45889 12.62219,10.71672 18.02935,16.42504"
         id="path35"
         sodipodi:nodetypes="ccc" />
      <path
         style="fill:none;fill-opacity:1;stroke:#000000;stroke-width:1;stroke-opacity:0.983759"
         d="m 253.66415,422.15093 c 9.98163,10.88727 22.44341,19.14079 33.08553,29.27312 l 0.37543,0.16782 0.16167,0.0723"
         id="path36" />
      <path
         style="fill:url(#radialGradient73);fill-opacity:1;stroke:none;stroke-width:1;stroke-opacity:0.983759"
         d="m 248.57871,349.22535 c -32.74704,19.74109 -82.38233,24.05088 -95.05161,2.29624 C 110.45392,370.66523 50.592549,347.0892 48.568088,331.09371 25.418159,315.65938 35.387525,307.33945 45.009506,267.60041 18.888778,241.99991 20.815209,211.86762 58.077409,201.83669 c 25.722716,-32.99485 -5.186207,-27.02886 95.562091,-36.2676 33.05951,-6.94558 51.22057,-28.52266 69.43548,-10.79706 30.46896,-14.03164 41.63926,-7.79287 55.53074,13.13925 36.14229,-6.17668 11.63499,4.11146 31.6355,13.96978 53.87635,-19.36161 70.2056,45.34384 56.96254,69.08746 -2.89106,44.5851 -10.58868,50.46697 -53.27737,59.99782 -26.20871,10.53005 -38.62155,22.66319 -58.42903,34.39067"
         id="path72"
         sodipodi:nodetypes="cccccccccccc" />
      <g
         id="g60"
         style="fill:#0015e4;fill-opacity:1">
        <rect
           style="fill:#00e49c;fill-opacity:1;stroke:#000000;stroke-width:0.992773;stroke-opacity:0.983759"
           id="rect48"
           width="39.007229"
           height="6.0072269"
           x="180.49638"
           y="207.49638" />
        <rect
           style="fill:#00c2e4;fill-opacity:1;stroke:#000000;stroke-width:1.28519;stroke-opacity:0.983759"
           id="rect49"
           width="68.714813"
           height="5.7148123"
           x="150.64259"
           y="247.64259" />
        <rect
           style="fill:#e400dc;fill-opacity:1;stroke:#000000;stroke-width:1.36518;stroke-opacity:0.983759"
           id="rect50"
           width="78.634819"
           height="5.6348262"
           x="110.68259"
           y="277.68259" />
        <rect
           style="fill:#8b00e4;fill-opacity:1;stroke:#000000;stroke-width:0.866912;stroke-opacity:0.983759"
           id="rect51"
           width="29.133087"
           height="6.1330938"
           x="190.43346"
           y="317.43344" />
        <rect
           style="fill:#e40000;fill-opacity:1;stroke:#000000;stroke-width:1.28519;stroke-opacity:0.983759"
           id="rect52"
           width="68.714806"
           height="5.7148132"
           x="220.64259"
           y="247.64259" />
        <rect
           style="fill:#0015e4;fill-opacity:1;stroke:#000000;stroke-width:0.992775;stroke-opacity:0.983759"
           id="rect53"
           width="39.007225"
           height="6.0072284"
           x="290.4964"
           y="247.49638" />
        <rect
           style="fill:#cfe400;fill-opacity:1;stroke:#000000;stroke-width:0.992773;stroke-opacity:0.983759"
           id="rect54"
           width="6.0072274"
           height="39.007229"
           x="216.99638"
           y="210.49638" />
        <rect
           style="fill:#6a00e4;fill-opacity:1;stroke:#000000;stroke-width:0.866909;stroke-opacity:0.983759"
           id="rect55"
           width="6.1330914"
           height="29.133091"
           x="286.93347"
           y="220.43346" />
        <rect
           style="fill:#08e400;fill-opacity:1;stroke:#000000;stroke-width:1.28519;stroke-opacity:0.983759"
           id="rect56"
           width="5.7148128"
           height="68.714813"
           x="217.14259"
           y="250.64259" />
        <rect
           style="fill:#e40054;fill-opacity:1;stroke:#000000;stroke-width:0.992775;stroke-opacity:0.983759"
           id="rect57"
           width="6.0072279"
           height="39.007225"
           x="186.99638"
           y="280.4964" />
        <rect
           style="fill:#11ff9a;fill-opacity:1;stroke:#000000;stroke-width:1.19792;stroke-opacity:0.983759"
           id="rect58"
           width="5.8020787"
           height="58.802074"
           x="147.09895"
           y="250.59895" />
        <rect
           style="fill:#e47200;fill-opacity:1;stroke:#000000;stroke-width:0.992773;stroke-opacity:0.983759"
           id="rect59"
           width="6.0072269"
           height="39.007225"
           x="286.9964"
           y="250.49638" />
      </g>
      <g
         id="g59">
        <circle
           style="fill:#ffffff;fill-opacity:1;stroke:#000000;stroke-width:0.85296;stroke-opacity:0.983759"
           id="path37"
           cx="150"
           cy="250"
           r="9.5735197" />
        <circle
           style="fill:#ffffff;fill-opacity:1;stroke:#000000;stroke-width:0.85296;stroke-opacity:0.983759"
           id="circle37"
           cx="220"
           cy="250"
           r="9.5735197" />
        <circle
           style="fill:#ffffff;fill-opacity:1;stroke:#000000;stroke-width:0.85296;stroke-opacity:0.983759"
           id="circle38"
           cx="220"
           cy="210"
           r="9.5735197" />
        <circle
           style="fill:#ffffff;fill-opacity:1;stroke:#000000;stroke-width:0.85296;stroke-opacity:0.983759"
           id="circle39"
           cx="220"
           cy="320"
           r="9.5735197" />
        <circle
           style="fill:#ffffff;fill-opacity:1;stroke:#000000;stroke-width:0.85296;stroke-opacity:0.983759"
           id="circle40"
           cx="190"
           cy="320"
           r="9.5735197" />
        <circle
           style="fill:#ffffff;fill-opacity:1;stroke:#000000;stroke-width:0.85296;stroke-opacity:0.983759"
           id="circle41"
           cx="190"
           cy="280"
           r="9.5735197" />
        <circle
           style="fill:#ffffff;fill-opacity:1;stroke:#000000;stroke-width:0.85296;stroke-opacity:0.983759"
           id="circle42"
           cx="110"
           cy="280"
           r="9.5735197" />
        <circle
           style="fill:#ffffff;fill-opacity:1;stroke:#000000;stroke-width:0.85296;stroke-opacity:0.983759"
           id="circle43"
           cx="290"
           cy="250"
           r="9.5735197" />
        <circle
           style="fill:#ffffff;fill-opacity:1;stroke:#000000;stroke-width:0.85296;stroke-opacity:0.983759"
           id="circle44"
           cx="290"
           cy="220"
           r="9.5735197" />
        <circle
           style="fill:#ffffff;fill-opacity:1;stroke:#000000;stroke-width:0.85296;stroke-opacity:0.983759"
           id="circle45"
           cx="290"
           cy="290"
           r="9.5735197" />
        <circle
           style="fill:#ffffff;fill-opacity:1;stroke:#000000;stroke-width:0.85296;stroke-opacity:0.983759"
           id="circle46"
           cx="150"
           cy="310"
           r="9.5735197" />
        <circle
           style="fill:#ffffff;fill-opacity:1;stroke:#000000;stroke-width:0.85296;stroke-opacity:0.983759"
           id="circle47"
           cx="180"
           cy="210"
           r="9.5735197" />
        <circle
           style="fill:#ffffff;fill-opacity:1;stroke:#000000;stroke-width:0.85296;stroke-opacity:0.983759"
           id="circle48"
           cx="330"
           cy="250"
           r="9.5735197" />
      </g>
      <path
         style="fill:none;fill-opacity:1;fill-rule:nonzero;stroke:#000000;stroke-width:1;stroke-dasharray:none;stroke-opacity:0.983759"
         d="m 347.11206,227.70973 c -0.47885,14.65691 5.52038,58.15029 -10.03822,62.34279"
         id="path63"
         sodipodi:nodetypes="cc" />
      <path
         style="fill:none;fill-opacity:1;fill-rule:nonzero;stroke:#000000;stroke-width:1;stroke-dasharray:none;stroke-opacity:1"
         d="m 81.758887,286.22215 c 0.383644,7.64659 4.124536,15.78818 0.268074,23.11965 -3.135511,3.25733 -6.022845,8.37433 -2.631157,12.55069 4.156634,5.6989 11.828031,5.35075 18.068601,6.6333 5.168305,0.70414 10.382055,1.03437 15.595355,1.13291 l 0.41805,-0.46321 0.24497,-0.57495"
         id="path64" />
      <path
         style="fill:none;fill-opacity:1;fill-rule:nonzero;stroke:#000000;stroke-width:1;stroke-dasharray:none;stroke-opacity:1"
         d="m 85.924527,256.83962 c 0.500347,-10.0405 -2.278073,-21.82506 5.468712,-29.90186 5.145372,-6.70272 13.986181,-8.12695 21.896671,-7.32874 1.5883,0.0118 3.17862,-0.003 4.76292,-0.12785"
         id="path65" />
      <path
         style="fill:none;fill-opacity:1;fill-rule:nonzero;stroke:#000000;stroke-width:1;stroke-dasharray:none;stroke-opacity:1"
         d="m 183.72635,343.54582 c 26.10489,3.38718 49.04359,-12.51799 72.79628,-20.51122 9.07744,-3.64865 18.20317,-7.26486 26.7937,-11.98102"
         id="path66" />
      <path
         style="fill:none;fill-opacity:1;fill-rule:nonzero;stroke:#000000;stroke-width:1;stroke-dasharray:none;stroke-opacity:1"
         d="m 138.97358,214.90471 c 12.7261,-1.29634 20.18257,-11.83958 27.39628,-20.20338 8.81262,-6.03466 21.50488,-4.43102 31.25655,-8.00234"
         id="path67"
         sodipodi:nodetypes="ccc" />
      <path
         style="fill:none;fill-opacity:1;fill-rule:nonzero;stroke:#000000;stroke-width:1;stroke-dasharray:none;stroke-opacity:1"
         d="m 89.847168,247.68679 c 0.825879,5.47927 1.121838,12.46561 -3.848192,16.13081 -3.524029,1.84502 -5.188469,6.02307 -4.217953,9.82388 0.95842,4.95399 4.805097,9.14741 4.223485,14.41385 0.0073,1.61442 -0.0047,3.24195 0.293606,4.83524"
         id="path68" />
      <path
         style="fill:none;fill-opacity:1;fill-rule:nonzero;stroke:#000000;stroke-width:1;stroke-dasharray:none;stroke-opacity:1"
         d="m 213.31698,181.56226 c 8.95655,-1.55401 17.60341,2.11434 26.15187,3.21306 8.43598,-0.37051 17.262,1.21739 24.10843,6.40963 7.88107,3.56473 16.79709,3.84371 25.26733,2.89225 2.4751,8.24692 -10.77927,4.66814 -15.43503,5.43769 -12.73583,-0.23192 -24.25284,-6.4604 -36.69154,-8.46943 -8.29324,-2.44582 -16.84831,-3.06923 -25.45578,-2.94546"
         id="path69" />
      <path
         id="path70"
         style="fill:none;fill-opacity:1;fill-rule:nonzero;stroke:#000000;stroke-width:1;stroke-dasharray:none;stroke-opacity:1"
         d="m 297.1868,200.05472 c 13.38035,0.95609 29.12153,2.88537 36.84534,15.44946 4.47549,6.34162 6.61891,14.18366 6.4905,21.90902" />
      <path
         style="fill:none;fill-opacity:1;fill-rule:nonzero;stroke:#000000;stroke-width:1;stroke-dasharray:none;stroke-opacity:1"
         d="m 306.8066,299.52169 c 13.88563,-7.0174 30.57576,-15.15985 34.08968,-31.9415"
         id="path71" />
    </g>
  </g>
  <metadata
     id="metadata1">
    <rdf:RDF>
      <cc:Work
         rdf:about="">
        <dc:title>Cervello</dc:title>
        <dc:date>25-07-2025</dc:date>
        <dc:description>Il nostro cervello ci permette di fare ragionamenti logici</dc:description>
      </cc:Work>
    </rdf:RDF>
  </metadata>
</svg>
