<?xml version="1.0" encoding="UTF-8" standalone="no"?>
<!-- Created with Inkscape (http://www.inkscape.org/) -->

<svg
   width="500mm"
   height="500mm"
   viewBox="0 0 500 500"
   version="1.1"
   id="svg1"
   sodipodi:docname="luna.svg"
   inkscape:version="1.3.2 (091e20e, 2023-11-25, custom)"
   xmlns:inkscape="http://www.inkscape.org/namespaces/inkscape"
   xmlns:sodipodi="http://sodipodi.sourceforge.net/DTD/sodipodi-0.dtd"
   xmlns:xlink="http://www.w3.org/1999/xlink"
   xmlns="http://www.w3.org/2000/svg"
   xmlns:svg="http://www.w3.org/2000/svg"
   xmlns:rdf="http://www.w3.org/1999/02/22-rdf-syntax-ns#"
   xmlns:cc="http://creativecommons.org/ns#"
   xmlns:dc="http://purl.org/dc/elements/1.1/">
  <title
     id="title1">Luna</title>
  <sodipodi:namedview
     id="namedview1"
     pagecolor="#ffffff"
     bordercolor="#000000"
     borderopacity="0.25"
     inkscape:showpageshadow="2"
     inkscape:pageopacity="0.0"
     inkscape:pagecheckerboard="0"
     inkscape:deskcolor="#d1d1d1"
     inkscape:document-units="mm"
     inkscape:zoom="0.21034375"
     inkscape:cx="-328.03447"
     inkscape:cy="492.0517"
     inkscape:window-width="1920"
     inkscape:window-height="991"
     inkscape:window-x="-9"
     inkscape:window-y="-9"
     inkscape:window-maximized="1"
     inkscape:current-layer="layer1" />
  <defs
     id="defs1">
    <linearGradient
       id="linearGradient15"
       inkscape:collect="always">
      <stop
         style="stop-color:#f00000;stop-opacity:1;"
         offset="0"
         id="stop15" />
      <stop
         style="stop-color:#ffb961;stop-opacity:0.66412216;"
         offset="1"
         id="stop16" />
    </linearGradient>
    <radialGradient
       inkscape:collect="always"
       xlink:href="#linearGradient15"
       id="radialGradient16"
       cx="165.03246"
       cy="202.25456"
       fx="165.03246"
       fy="202.25456"
       r="16.332788"
       gradientTransform="matrix(0.85166557,0.01111011,-0.01057542,0.8106811,20.360026,36.966288)"
       gradientUnits="userSpaceOnUse" />
  </defs>
  <g
     inkscape:label="Livello 1"
     inkscape:groupmode="layer"
     id="layer1">
    <g
       id="g1"
       transform="matrix(1.3312372,0,0,1.3312372,-72.679424,-82.80928)">
      <path
         id="path1"
         style="fill:#000000;fill-opacity:1;fill-rule:evenodd;stroke-width:4.99999"
         d="m 188.37455,228.60775 a 17.963181,14.793207 0 0 0 -7.68584,-1.42627 17.963181,14.793207 0 0 0 -17.96324,14.79341 17.963181,14.793207 0 0 0 17.96324,14.7929 17.963181,14.793207 0 0 0 11.70006,-3.57446 120,125 0 0 1 -4.01422,-24.58558 z" />
      <path
         id="path3"
         style="fill:#d7d700;fill-opacity:1;fill-rule:evenodd;stroke-width:4.99999"
         d="m 250.00024,100.0001 a 150,150 0 0 0 -150.00014,150.00014 150,150 0 0 0 150.00014,149.99963 150,150 0 0 0 134.78092,-84.64082 120,125 0 0 1 -77.07849,29.35789 120,125 0 0 1 -115.3139,-91.52361 17.963181,14.793207 0 0 1 -11.70006,3.57446 17.963181,14.793207 0 0 1 -17.96324,-14.7929 17.963181,14.793207 0 0 1 17.96324,-14.79341 17.963181,14.793207 0 0 1 7.68584,1.42627 120,125 0 0 1 -0.6718,-8.89093 120,125 0 0 1 82.13556,-118.36073 150,150 0 0 0 -19.83807,-1.35599 z" />
      <path
         style="fill:#ffffff;fill-opacity:1;fill-rule:evenodd;stroke:#000000;stroke-width:0.5;stroke-dasharray:none;stroke-opacity:1"
         id="path4"
         sodipodi:type="arc"
         sodipodi:cx="151.30185"
         sodipodi:cy="194.72731"
         sodipodi:rx="16.332788"
         sodipodi:ry="14.367421"
         sodipodi:start="0"
         sodipodi:end="3.1528994"
         sodipodi:arc-type="slice"
         d="m 167.63464,194.72731 a 16.332788,14.367421 0 0 1 -8.21976,12.46954 16.332788,14.367421 0 0 1 -16.38581,-0.0815 16.332788,14.367421 0 0 1 -8.05897,-12.5505 l 16.33175,0.16245 z" />
      <ellipse
         style="fill:#000000;fill-opacity:1;fill-rule:evenodd;stroke:none;stroke-width:2;stroke-dasharray:none;stroke-opacity:1"
         id="path7"
         cx="171.19528"
         cy="200.10141"
         rx="0.56037736"
         ry="3.7825472" />
      <ellipse
         style="fill:#000000;fill-opacity:1;fill-rule:evenodd;stroke:none;stroke-width:2;stroke-dasharray:none;stroke-opacity:1"
         id="path8"
         cx="131.82877"
         cy="204.11745"
         rx="0.3268868"
         ry="8.0787735" />
      <ellipse
         style="fill:#000000;fill-opacity:1;fill-rule:evenodd;stroke:none;stroke-width:2;stroke-dasharray:none;stroke-opacity:1"
         id="path9"
         cx="134.77075"
         cy="212.75661"
         rx="0.74716979"
         ry="16.624529" />
      <path
         style="fill:url(#radialGradient16);fill-opacity:1;fill-rule:evenodd;stroke:none;stroke-width:1.462;stroke-dasharray:none;stroke-opacity:1"
         id="path13"
         sodipodi:type="arc"
         sodipodi:cx="151.30185"
         sodipodi:cy="194.72731"
         sodipodi:rx="16.332788"
         sodipodi:ry="14.367421"
         sodipodi:start="0"
         sodipodi:end="3.1528994"
         sodipodi:arc-type="slice"
         d="m 167.63464,194.72731 a 16.332788,14.367421 0 0 1 -8.21976,12.46954 16.332788,14.367421 0 0 1 -16.38581,-0.0815 16.332788,14.367421 0 0 1 -8.05897,-12.5505 l 16.33175,0.16245 z" />
      <ellipse
         style="fill:#000000;fill-opacity:1;fill-rule:evenodd;stroke:none;stroke-width:2;stroke-dasharray:none;stroke-opacity:1"
         id="path10"
         cx="164.47076"
         cy="215.79198"
         rx="0.65377361"
         ry="12.188208" />
      <ellipse
         style="fill:#000000;fill-opacity:1;fill-rule:evenodd;stroke:none;stroke-width:2;stroke-dasharray:none;stroke-opacity:1"
         id="path11"
         cx="143.78349"
         cy="225.17831"
         rx="0.51367927"
         ry="17.465094" />
      <rect
         style="fill:#000000;fill-opacity:1;fill-rule:evenodd;stroke-width:6.11689"
         id="rect3"
         width="44.561668"
         height="4.9499998"
         x="129.8091"
         y="192.02263" />
      <ellipse
         style="fill:#000000;fill-opacity:1;fill-rule:evenodd;stroke:none;stroke-width:2;stroke-dasharray:none;stroke-opacity:1"
         id="path12"
         cx="155.94833"
         cy="213.51544"
         rx="1.284198"
         ry="4.7748823" />
      <ellipse
         style="fill:#000000;fill-opacity:1;fill-rule:evenodd;stroke:none;stroke-width:1.15184;stroke-dasharray:none;stroke-opacity:1"
         id="path6"
         cx="158.39999"
         cy="202.20284"
         rx="4.3896217"
         ry="4.3896227" />
    </g>
  </g>
  <metadata
     id="metadata1">
    <rdf:RDF>
      <cc:Work
         rdf:about="">
        <dc:title>Luna</dc:title>
        <dc:date>24-07-2025</dc:date>
        <dc:description>Una luna che si è appena svegliata dopo aver dormito poche ore</dc:description>
      </cc:Work>
    </rdf:RDF>
  </metadata>
</svg>
