<?xml version="1.0" encoding="UTF-8" standalone="no"?>
<!-- Created with Inkscape (http://www.inkscape.org/) -->

<svg
   
   width="500mm"
   height="500mm"
   viewBox="0 0 500 500"
   version="1.1"
   id="svg1"
   inkscape:version="1.3.2 (091e20e, 2023-11-25, custom)"
   sodipodi:docname="pacman.svg"
   xmlns:inkscape="http://www.inkscape.org/namespaces/inkscape"
   xmlns:sodipodi="http://sodipodi.sourceforge.net/DTD/sodipodi-0.dtd"
   xmlns:xlink="http://www.w3.org/1999/xlink"
   xmlns="http://www.w3.org/2000/svg"
   xmlns:svg="http://www.w3.org/2000/svg">
  <sodipodi:namedview
     id="namedview1"
     pagecolor="#ffffff"
     bordercolor="#000000"
     borderopacity="0.25"
     inkscape:showpageshadow="2"
     inkscape:pageopacity="0.0"
     inkscape:pagecheckerboard="0"
     inkscape:deskcolor="#d1d1d1"
     inkscape:document-units="mm"
     inkscape:zoom="0.125"
     inkscape:cx="-824"
     inkscape:cy="340"
     inkscape:window-width="1920"
     inkscape:window-height="991"
     inkscape:window-x="-9"
     inkscape:window-y="-9"
     inkscape:window-maximized="1"
     inkscape:current-layer="layer1" />
  <defs
     id="defs1">
    <pattern
       inkscape:collect="always"
       xlink:href="#Polkadots-large"
       preserveAspectRatio="xMidYMid"
       id="pattern113"
       patternTransform="scale(0.1)"
       x="0"
       y="0" />
    <pattern
       patternUnits="userSpaceOnUse"
       width="10"
       height="10"
       patternTransform="translate(0,0) scale(10,10)"
       preserveAspectRatio="xMidYMid"
       id="Polkadots-large"
       inkscape:stockid="Polka dots, large"
       inkscape:label="Polka dots large"
       inkscape:collect="always"
       inkscape:isstock="true">
      <circle
         style="stroke:none"
         cx="2.567"
         cy="0.810"
         r="0.45"
         id="circle584" />
      <circle
         style="stroke:none"
         cx="3.048"
         cy="2.33"
         r="0.45"
         id="circle586" />
      <circle
         style="stroke:none"
         cx="4.418"
         cy="2.415"
         r="0.45"
         id="circle588" />
      <circle
         style="stroke:none"
         cx="1.844"
         cy="3.029"
         r="0.45"
         id="circle590" />
      <circle
         style="stroke:none"
         cx="6.08"
         cy="1.363"
         r="0.45"
         id="circle592" />
      <circle
         style="stroke:none"
         cx="5.819"
         cy="4.413"
         r="0.45"
         id="circle594" />
      <circle
         style="stroke:none"
         cx="4.305"
         cy="4.048"
         r="0.45"
         id="circle596" />
      <circle
         style="stroke:none"
         cx="5.541"
         cy="3.045"
         r="0.45"
         id="circle598" />
      <circle
         style="stroke:none"
         cx="4.785"
         cy="5.527"
         r="0.45"
         id="circle600" />
      <circle
         style="stroke:none"
         cx="2.667"
         cy="5.184"
         r="0.45"
         id="circle602" />
      <circle
         style="stroke:none"
         cx="7.965"
         cy="1.448"
         r="0.45"
         id="circle604" />
      <circle
         style="stroke:none"
         cx="7.047"
         cy="5.049"
         r="0.45"
         id="circle606" />
      <circle
         style="stroke:none"
         cx="4.340"
         cy="0.895"
         r="0.45"
         id="circle608" />
      <circle
         style="stroke:none"
         cx="7.125"
         cy="0.340"
         r="0.45"
         id="circle610" />
      <circle
         style="stroke:none"
         cx="7.125"
         cy="10.340"
         r="0.45"
         id="circle612" />
      <circle
         style="stroke:none"
         cx="9.550"
         cy="1.049"
         r="0.45"
         id="circle614" />
      <circle
         style="stroke:none"
         cx="7.006"
         cy="2.689"
         r="0.45"
         id="circle616" />
      <circle
         style="stroke:none"
         cx="8.909"
         cy="2.689"
         r="0.45"
         id="circle618" />
      <circle
         style="stroke:none"
         cx="9.315"
         cy="4.407"
         r="0.45"
         id="circle620" />
      <circle
         style="stroke:none"
         cx="7.820"
         cy="3.870"
         r="0.45"
         id="circle622" />
      <circle
         style="stroke:none"
         cx="8.270"
         cy="5.948"
         r="0.45"
         id="circle624" />
      <circle
         style="stroke:none"
         cx="7.973"
         cy="7.428"
         r="0.45"
         id="circle626" />
      <circle
         style="stroke:none"
         cx="9.342"
         cy="8.072"
         r="0.45"
         id="circle628" />
      <circle
         style="stroke:none"
         cx="8.206"
         cy="9.315"
         r="0.45"
         id="circle630" />
      <circle
         style="stroke:none"
         cx="9.682"
         cy="9.475"
         r="0.45"
         id="circle632" />
      <circle
         style="stroke:none"
         cx="-0.318"
         cy="9.475"
         r="0.45"
         id="circle634" />
      <circle
         style="stroke:none"
         cx="9.688"
         cy="6.186"
         r="0.45"
         id="circle636" />
      <circle
         style="stroke:none"
         cx="-0.312"
         cy="6.186"
         r="0.45"
         id="circle638" />
      <circle
         style="stroke:none"
         cx="3.379"
         cy="6.296"
         r="0.45"
         id="circle640" />
      <circle
         style="stroke:none"
         cx="2.871"
         cy="8.204"
         r="0.45"
         id="circle642" />
      <circle
         style="stroke:none"
         cx="4.59"
         cy="8.719"
         r="0.45"
         id="circle644" />
      <circle
         style="stroke:none"
         cx="3.181"
         cy="9.671"
         r="0.45"
         id="circle646" />
      <circle
         style="stroke:none"
         cx="3.181"
         cy="-0.329"
         r="0.45"
         id="circle648" />
      <circle
         style="stroke:none"
         cx="5.734"
         cy="7.315"
         r="0.45"
         id="circle650" />
      <circle
         style="stroke:none"
         cx="6.707"
         cy="6.513"
         r="0.45"
         id="circle652" />
      <circle
         style="stroke:none"
         cx="5.730"
         cy="9.670"
         r="0.45"
         id="circle654" />
      <circle
         style="stroke:none"
         cx="5.730"
         cy="-0.330"
         r="0.45"
         id="circle656" />
      <circle
         style="stroke:none"
         cx="6.535"
         cy="8.373"
         r="0.45"
         id="circle658" />
      <circle
         style="stroke:none"
         cx="4.37"
         cy="7.154"
         r="0.45"
         id="circle660" />
      <circle
         style="stroke:none"
         cx="0.622"
         cy="7.25"
         r="0.45"
         id="circle662" />
      <circle
         style="stroke:none"
         cx="0.831"
         cy="5.679"
         r="0.45"
         id="circle664" />
      <circle
         style="stroke:none"
         cx="1.257"
         cy="8.519"
         r="0.45"
         id="circle666" />
      <circle
         style="stroke:none"
         cx="1.989"
         cy="6.877"
         r="0.45"
         id="circle668" />
      <circle
         style="stroke:none"
         cx="0.374"
         cy="3.181"
         r="0.45"
         id="circle670" />
      <circle
         style="stroke:none"
         cx="10.374"
         cy="3.181"
         r="0.45"
         id="circle672" />
      <circle
         style="stroke:none"
         cx="1.166"
         cy="1.664"
         r="0.45"
         id="circle674" />
      <circle
         style="stroke:none"
         cx="1.151"
         cy="0.093"
         r="0.45"
         id="circle676" />
      <circle
         style="stroke:none"
         cx="1.151"
         cy="10.093"
         r="0.45"
         id="circle678" />
      <circle
         style="stroke:none"
         cx="1.302"
         cy="4.451"
         r="0.45"
         id="circle680" />
      <circle
         style="stroke:none"
         cx="3.047"
         cy="3.763"
         r="0.45"
         id="circle682" />
    </pattern>
    <linearGradient
       id="linearGradient111"
       inkscape:collect="always">
      <stop
         style="stop-color:#790079;stop-opacity:1;"
         offset="0.65681821"
         id="stop111" />
      <stop
         style="stop-color:#790079;stop-opacity:0.34758621;"
         offset="1"
         id="stop112" />
    </linearGradient>
    <clipPath
       clipPathUnits="userSpaceOnUse"
       id="clipPath25">
      <rect
         style="fill:#ff0000;stroke:none;stroke-width:3;stroke-linecap:square;stroke-linejoin:miter;paint-order:stroke markers fill;stop-color:#000000"
         id="rect25-8"
         width="78"
         height="45.033199"
         x="763.61322"
         y="452.82422" />
    </clipPath>
    <linearGradient
       id="linearGradient74"
       inkscape:collect="always">
      <stop
         style="stop-color:#000000;stop-opacity:1;"
         offset="0"
         id="stop73" />
      <stop
         style="stop-color:#ffffff;stop-opacity:0;"
         offset="1"
         id="stop74" />
    </linearGradient>
    <linearGradient
       id="linearGradient72"
       inkscape:collect="always">
      <stop
         style="stop-color:#ffffff;stop-opacity:0.33103448;"
         offset="0"
         id="stop71" />
      <stop
         style="stop-color:#ffffff;stop-opacity:0;"
         offset="1"
         id="stop72" />
    </linearGradient>
    <linearGradient
       id="linearGradient69"
       inkscape:collect="always">
      <stop
         style="stop-color:#ffffff;stop-opacity:0.43310344;"
         offset="0"
         id="stop69" />
      <stop
         style="stop-color:#ffffff;stop-opacity:0;"
         offset="1"
         id="stop70" />
    </linearGradient>
    <linearGradient
       id="linearGradient68"
       inkscape:collect="always">
      <stop
         style="stop-color:#eeeeee;stop-opacity:1;"
         offset="0"
         id="stop67" />
      <stop
         style="stop-color:#e87b7b;stop-opacity:1;"
         offset="1"
         id="stop68" />
    </linearGradient>
    <linearGradient
       id="linearGradient17"
       inkscape:collect="always">
      <stop
         style="stop-color:#000000;stop-opacity:0;"
         offset="0"
         id="stop17" />
      <stop
         style="stop-color:#000000;stop-opacity:0.50206894;"
         offset="1"
         id="stop18" />
    </linearGradient>
    <radialGradient
       inkscape:collect="always"
       xlink:href="#linearGradient17"
       id="radialGradient18"
       cx="67.008308"
       cy="174.52029"
       fx="67.008308"
       fy="174.52029"
       r="10.008305"
       gradientTransform="matrix(16.046215,0,0,16.867085,-815.46267,-2714.5546)"
       gradientUnits="userSpaceOnUse" />
    <radialGradient
       inkscape:collect="always"
       xlink:href="#linearGradient68"
       id="radialGradient20"
       cx="60.306969"
       cy="172.43216"
       fx="60.306969"
       fy="172.43216"
       r="2.3069682"
       gradientTransform="matrix(16.046215,0,0,16.91694,-815.46267,-2721.437)"
       gradientUnits="userSpaceOnUse" />
    <radialGradient
       inkscape:collect="always"
       xlink:href="#linearGradient68"
       id="radialGradient68"
       gradientUnits="userSpaceOnUse"
       gradientTransform="matrix(16.046215,0,0,16.91694,-815.46455,-2721.4364)"
       cx="60.306969"
       cy="172.43216"
       fx="60.306969"
       fy="172.43216"
       r="2.3069682" />
    <radialGradient
       inkscape:collect="always"
       xlink:href="#linearGradient68"
       id="radialGradient20-1"
       cx="60.306969"
       cy="172.43216"
       fx="60.306969"
       fy="172.43216"
       r="2.3069682"
       gradientTransform="matrix(16.046215,0,0,16.91694,-718.71736,-2710.9067)"
       gradientUnits="userSpaceOnUse" />
    <radialGradient
       inkscape:collect="always"
       xlink:href="#linearGradient68"
       id="radialGradient68-4"
       gradientUnits="userSpaceOnUse"
       gradientTransform="matrix(16.046215,0,0,16.91694,-718.71924,-2721.4364)"
       cx="60.306969"
       cy="172.43216"
       fx="60.306969"
       fy="172.43216"
       r="2.3069682" />
    <radialGradient
       inkscape:collect="always"
       xlink:href="#linearGradient69"
       id="radialGradient70"
       cx="168.49542"
       cy="69.269379"
       fx="168.49542"
       fy="69.269379"
       r="3.0168047"
       gradientTransform="matrix(22.855795,0,0,13.216177,-3501.1076,-891.11128)"
       gradientUnits="userSpaceOnUse" />
    <radialGradient
       inkscape:collect="always"
       xlink:href="#linearGradient72"
       id="radialGradient70-9"
       cx="168.49542"
       cy="69.269379"
       fx="168.49542"
       fy="69.269379"
       r="3.0168047"
       gradientTransform="matrix(10.305617,0,0,7.3230503,-1496.6858,-248.26581)"
       gradientUnits="userSpaceOnUse" />
    <radialGradient
       inkscape:collect="always"
       xlink:href="#linearGradient74"
       id="radialGradient70-1"
       cx="168.49542"
       cy="69.269379"
       fx="168.49542"
       fy="69.269379"
       r="3.0168047"
       gradientTransform="matrix(100.39147,-3.5610669e-7,0,33.466752,-16680.472,-1919.5561)"
       gradientUnits="userSpaceOnUse" />
    <radialGradient
       inkscape:collect="always"
       xlink:href="#linearGradient111"
       id="radialGradient112"
       cx="69.251404"
       cy="159.42159"
       fx="69.251404"
       fy="159.42159"
       r="2.9678228"
       gradientTransform="matrix(1,0,0,0.86146148,0,22.086032)"
       gradientUnits="userSpaceOnUse" />
  </defs>
  <g
     inkscape:label="Livello 1"
     inkscape:groupmode="layer"
     id="layer1">
    <ellipse
       style="fill:url(#radialGradient70-1);fill-rule:evenodd;stroke:none;stroke-width:35.5554"
       id="path68-3"
       cx="235.03084"
       cy="398.66397"
       rx="302.86148"
       ry="100.96265"
       transform="matrix(0.99951771,0.03105407,-0.02238089,0.99974952,0,0)" />
    <g
       id="g1"
       transform="translate(-9.7670064,20.9059)">
      <path
         id="path12"
         style="fill:#5cff00;fill-opacity:1;fill-rule:evenodd;stroke-width:4.24556"
         d="m 420.36183,220.74194 c 0,1.34146 0.44529,174.98558 -23.02306,176.95124 -58.75644,4.92154 -28.87519,-77.46037 -37.21155,-85.10928 -8.33637,-7.64875 -27.98908,-2.45732 -36.43366,2.20346 -8.44457,4.65693 6.46599,81.84998 -47.82881,81.58249 -43.99349,-0.21662 -24.49278,-80.77793 -31.6232,-88.63656 -7.13044,-7.85864 -45.91164,-10.07478 -51.55628,-0.276 -5.64464,9.79878 2.87448,82.0812 -14.96663,82.13015 -20.56889,0.0642 -42.32735,-4.36249 -54.64795,-21.03868 C 94.851992,330.35444 99.461251,226.59544 99.437535,220.74531 99.048575,124.79745 171.27889,60.28316 259.89968,60.28316 c 88.6208,0 160.46215,71.84131 160.46215,160.46215 z"
         sodipodi:nodetypes="sszzszzssssss"
         inkscape:label="path12" />
      <path
         id="path12-5"
         style="fill:url(#radialGradient18);fill-opacity:1;fill-rule:evenodd;stroke:none;stroke-width:4.24556"
         d="m 420.36183,220.74194 c 0,1.34146 0.44529,174.98558 -23.02306,176.95124 -58.75644,4.92154 -28.87519,-77.46037 -37.21155,-85.10928 -8.33637,-7.64875 -27.98908,-2.45732 -36.43366,2.20346 -8.44457,4.65693 6.46599,81.84998 -47.82881,81.58249 -43.99349,-0.21662 -24.49278,-80.77793 -31.6232,-88.63656 -7.13044,-7.85864 -45.91164,-10.07478 -51.55628,-0.276 -5.64464,9.79878 2.87448,82.0812 -14.96663,82.13015 -20.56889,0.0642 -42.32735,-4.36249 -54.64795,-21.03868 C 94.851992,330.35444 99.461251,226.59544 99.437535,220.74531 99.048575,124.79745 171.27889,60.28316 259.89968,60.28316 c 88.6208,0 160.46215,71.84131 160.46215,160.46215 z"
         sodipodi:nodetypes="sszzszzssssss" />
      <ellipse
         style="fill:#800000;fill-rule:evenodd;stroke:none;stroke-width:3.2466"
         id="path13"
         cx="152.23592"
         cy="195.5874"
         rx="37.018108"
         ry="39.02684" />
      <path
         id="path53"
         style="fill:url(#radialGradient20);fill-rule:evenodd;stroke:none;stroke-width:3.2466"
         d="m 147.06074,181.97509 c -0.003,0.0963 -0.004,0.18774 0,0.28241 l 0.008,-0.008 c 0.0401,-0.0642 0.0401,-0.16047 -0.008,-0.27439 z" />
      <path
         id="path59"
         style="fill:url(#radialGradient68);fill-rule:evenodd;stroke:none;stroke-width:3.2466"
         d="m 152.23314,156.56045 a 37.018108,39.026842 0 0 0 -1.08632,0.0963 c -0.2484,0.30167 -0.47995,0.59852 -0.63848,0.87933 -3.03498,0.70603 -2.45766,3.74198 -2.35496,6.10302 -0.0417,2.77728 0.61136,6.18758 -2.05644,8.04332 -1.9991,1.66448 -3.11853,4.05536 -3.67341,6.55071 -0.53033,2.23123 -2.49737,0.67394 -1.675,-0.98684 0.19368,-3.58441 3.74329,-5.30681 5.01672,-8.32526 1.33906,-2.85671 -0.1059,-5.79461 -0.58039,-8.62388 0.19849,-1.3559 0.85783,-2.39618 1.73304,-3.26701 a 37.018108,39.026842 0 0 0 -12.33036,4.57719 c 0.93774,0.80712 1.89199,1.81354 1.92376,3.13446 0.009,1.61329 0.97369,2.92956 1.60045,4.33681 1.33842,1.62051 1.7155,3.60142 1.44288,5.64683 0.0369,1.73556 0.21486,4.25529 -1.99841,4.37821 0.41014,0.12837 -0.0866,0.16848 -0.15726,0.19095 -0.10109,-2.72722 0.21711,-5.50594 -0.18244,-8.2009 -0.67635,-1.94272 -1.46181,-3.83922 -2.37155,-5.68004 -0.15084,-1.14891 -0.35526,-2.3803 -1.14426,-3.2837 a 37.018108,39.026842 0 0 0 -5.58058,4.18742 c 1.13639,2.18245 1.67091,4.62869 2.96856,6.7415 0.95203,2.2524 1.35848,4.8121 1.53402,7.23074 -0.33633,-2.52984 -1.28514,-4.99583 -2.23888,-7.32189 -0.32718,-2.50657 -2.11962,-3.80937 -3.89729,-5.14104 a 37.018108,39.026842 0 0 0 -3.37488,4.01332 c 0.13478,1.29653 -0.17764,2.81033 0.77118,3.806 1.45763,1.48748 3.75223,1.12323 5.59717,1.41848 1.42812,1.29654 0.52167,3.5735 0.64683,5.2821 -1.31275,1.58215 -0.66255,-2.30793 -1.77452,-2.83585 -1.58505,-1.11521 -4.10751,-0.81033 -5.12452,-2.86906 -0.67426,-0.82959 -1.06611,-1.85639 -1.50097,-2.8442 a 37.018108,39.026842 0 0 0 -2.26373,3.97192 c 1.53691,0.60334 2.22952,2.66352 2.85249,4.32847 1.73512,-0.17972 5.10191,-0.0963 5.50595,2.73636 1.02567,4.47722 -2.82904,0.0963 -4.77625,-0.40597 -1.61141,-1.2163 -3.30202,-2.64409 -4.75138,-4.27054 a 37.018108,39.026842 0 0 0 -1.73306,5.21583 c 0.18341,0.17008 0.35944,0.37227 0.52247,0.62259 0.41303,2.56595 1.74056,5.14923 4.90064,4.40308 3.83193,-0.95796 4.07789,4.79204 0.14121,3.78113 -2.41122,-0.72529 -4.4246,-2.31146 -6.56735,-3.64843 a 37.018108,39.026842 0 0 0 -0.34002,5.06643 37.018108,39.026842 0 0 0 0.23219,3.35832 c 0.41832,-0.0116 0.86232,0.0481 1.3267,0.19897 2.53007,1.08793 5.01974,1.37676 7.68679,0.9034 1.67451,2.31306 -3.35898,3.9424 -5.2655,3.15934 -1.07894,-0.33537 -2.24239,-0.99326 -3.41635,-1.41046 a 37.018108,39.026842 0 0 0 2.37155,8.79782 c 0.38848,-0.17009 0.84516,-0.20058 1.38479,-0.0642 3.43275,1.93165 4.59474,-1.75192 6.02835,-3.90565 3.20999,-2.92201 5.57993,2.90292 1.74964,3.93887 -2.2674,2.0284 -4.52853,2.70748 -7.49606,1.86569 -0.24294,0.0802 -0.45475,0.19737 -0.63848,0.34018 a 37.018108,39.026842 0 0 0 4.07972,6.91576 c 0.0834,-0.0321 0.17009,-0.0481 0.25706,-0.0642 1.74089,-0.77342 3.49737,-1.54685 5.19087,-2.39634 2.10032,-1.18421 0.52166,-3.81466 2.04816,-5.35671 1.07574,-2.36938 3.98524,-0.78145 2.16423,1.26124 -1.31659,1.83504 -3.29843,3.0422 -4.66845,4.85911 -1.12918,1.24679 -2.39556,2.38479 -3.58219,3.5905 a 37.018108,39.026842 0 0 0 12.67863,9.7017 c 0.69399,-2.26155 1.1672,-4.58616 0.73796,-6.99021 -0.77118,-2.80841 -2.43317,-5.30472 -3.4578,-8.04332 -2.17192,-1.595 1.64561,-4.23604 1.10286,-1.25161 0.004,0.0802 0.004,0.16046 0.008,0.24069 1.60928,3.27953 5.32338,5.59002 5.28208,9.58569 0.0963,2.55857 -1.33087,4.72289 -2.03986,7.09805 a 37.018108,39.026842 0 0 0 13.25079,2.69496 37.018108,39.026842 0 0 0 10.60562,-1.65003 c -0.12677,-2.21631 -1.35157,-4.71984 -3.80608,-4.75145 -2.40633,0.27439 -5.51292,1.13928 -7.10634,-1.35109 -2.10251,-2.90966 -2.42428,-6.88078 -1.39314,-10.25738 0.62051,-2.83874 -2.4878,-4.62885 -2.71152,-7.31371 l 0.47256,0.12837 0.46438,0.12837 v 0.008 c 3.71937,0.96919 5.57901,4.87885 6.05324,8.39987 0.004,2.47063 0.47658,5.24856 3.08466,6.24406 2.39991,1.42812 5.7226,2.29654 6.70833,5.21566 0.23684,0.80071 0.57622,1.65292 0.87067,2.51252 a 37.018108,39.026842 0 0 0 18.77333,-17.04028 c -0.0674,-0.50866 -0.18004,-0.98363 -0.64682,-1.22753 -0.86954,-0.16047 -1.81205,-0.0321 -2.71152,-0.0642 -1.45218,-0.12837 -2.73734,0.53595 -4.12948,0.66271 -0.88751,0.3113 -2.06394,0.51508 -3.10955,0.14442 -0.5929,-0.36586 -1.67572,-0.53274 -1.53401,-0.7959 -1.38656,-0.19736 -1.27905,-2.03995 -1.87403,-3.00176 -0.16094,-1.10398 -2.12984,-0.0642 -2.81102,0.0963 -1.05921,0.30487 -2.19915,0.86168 -3.47439,0.68838 -1.06611,-0.29044 -2.24041,-0.55039 -2.91053,-1.48428 -0.86794,-0.74935 -1.60747,-1.52599 -2.24716,-2.39634 -0.29477,-0.55359 -1.58584,-1.8742 -2.58714,-2.18918 -1.00241,0.14441 -1.55697,0.97561 -2.33837,1.37676 -1.00594,0.11233 -2.30934,0.39474 -2.80275,-0.51348 -0.23732,-0.0136 -0.38382,-0.20057 -0.52246,-0.36425 l 2.71152,-1.24358 c 1.47513,-0.24871 2.92213,-0.85045 4.49432,-0.59692 1.5414,-0.009 1.58505,1.54846 1.79939,2.63704 0.74294,1.22112 2.20793,1.52599 3.48269,1.88222 1.39666,0.35462 2.66354,-0.38511 3.96364,-0.66271 1.75571,0.0642 3.51128,0.0161 5.26548,0 0.6035,0.9371 -0.27904,2.61971 0.82093,3.56563 0.16206,1.61954 1.69498,1.87853 2.87736,1.06066 1.5345,-0.48139 3.11073,-0.83922 4.63528,-1.19384 0.83633,-0.0802 2.01351,-0.66913 3.12613,-0.49744 1.28257,-0.27278 0.35558,1.57253 1.2439,2.16432 0.0353,0.0963 0.0722,0.17651 0.10751,0.26476 a 37.018108,39.026842 0 0 0 3.95533,-14.30392 c -0.42138,0.0802 -0.84436,0.14442 -1.26862,0.21502 -3.8936,-0.24069 -6.87203,-3.96052 -10.93729,-3.52407 -4.61651,1.16175 -9.27027,-0.28883 -13.81465,-1.0783 -4.45048,-1.16656 -8.00522,2.60109 -12.18941,3.21726 l -1.50081,-7.11457 c 1.44031,0.94994 1.88584,3.95202 4.08802,3.40806 4.16741,-2.63319 8.59124,-5.0905 13.48298,-6.05328 3.09462,-1.27727 6.59085,-0.32734 9.2457,1.51798 3.66081,2.95587 8.18658,5.52214 13.04348,5.02503 a 37.018108,39.026842 0 0 0 -6.49271,-21.09516 c -1.33489,1.65982 -3.57189,2.53209 -5.56401,3.13447 -2.93713,0.59692 -6.0752,-0.11232 -8.99695,0.76219 -2.9398,0.98203 -1.94636,5.23332 -4.66016,6.25225 -2.57536,0.52792 -4.87208,-1.57253 -7.44631,-1.33504 -2.36038,1.02856 -4.77937,2.63479 -6.15276,4.89233 -0.38607,-0.14442 -0.77407,-0.30809 -1.08633,-0.58088 -1.22898,-2.47111 2.7008,-3.66768 4.32848,-4.83424 2.2122,-1.41046 4.86905,-1.83344 7.33853,-0.82156 2.237,1.06386 4.62211,-1.70829 4.25385,-3.87244 -0.75546,-3.53113 3.95509,-1.5966 5.88739,-2.13944 2.47227,0.26316 4.99843,0.0802 7.21414,-1.16175 0.92731,-0.21181 2.29196,-1.57734 3.44952,-2.33825 a 37.018108,39.026842 0 0 0 -13.5576,-11.16127 c 0.1786,1.47946 -0.19496,3.03835 0.0995,4.51092 0.35799,1.78963 -0.90773,3.52134 -2.55398,4.12949 -1.28305,0.73171 -2.90284,0.17009 -4.11289,1.03658 -1.50192,1.30617 -1.2293,3.5175 -1.99009,5.20732 -0.27696,1.60623 -1.73422,2.7991 -3.31685,2.98524 -1.26461,0.28081 -2.4556,-0.28241 -3.6817,-0.44769 -2.4912,-0.23909 -4.99292,1.83697 -5.08307,4.33681 0.0497,0.11232 0.0481,0.207 0.008,0.27439 l -0.008,0.008 c -0.28353,0.41238 -2.09782,-0.2054 -1.60866,-0.89538 0.51364,-2.84933 2.94685,-5.02119 5.61375,-5.8957 0.92571,-0.39795 1.91237,-0.28402 2.88565,-0.34821 2.08085,-0.20218 3.39684,-2.20057 3.69001,-4.12115 0.15886,-1.64634 1.66388,-2.7317 3.11783,-3.23395 1.88119,-0.70764 4.17493,-1.13126 5.27378,-3.01011 0.80632,-1.76268 -0.46149,-3.53755 -0.57221,-5.30696 -0.0321,-0.0963 -0.0546,-0.19256 -0.0658,-0.28242 A 37.018108,39.026842 0 0 0 152.2339,156.5651 Z" />
      <ellipse
         style="fill:#000000;fill-rule:evenodd;stroke:none;stroke-width:4.24556"
         id="path14"
         cx="138.81866"
         cy="195.07127"
         rx="16.046215"
         ry="19.255459" />
      <path
         style="fill:#000000;fill-opacity:1;fill-rule:evenodd;stroke:none;stroke-width:4.24556"
         d="m 162.08475,260.02644 -4.69074,-5.62885"
         id="path22" />
      <path
         style="fill:#000000;fill-opacity:1;fill-rule:evenodd;stroke:none;stroke-width:4.24556"
         d="m 150.2641,188.16443 -0.37532,-0.18774"
         id="path23" />
      <path
         style="fill:#000000;fill-opacity:1;fill-rule:evenodd;stroke:none;stroke-width:4.24556"
         d="m 148.94304,161.38571 8.35845,7.96052"
         id="path25" />
      <path
         style="fill:#000000;fill-opacity:1;fill-rule:evenodd;stroke:none;stroke-width:4.24556"
         d="M 155.14245,254.77275 143.88472,233.75831"
         id="path31" />
      <ellipse
         style="fill:#800000;fill-rule:evenodd;stroke:none;stroke-width:3.2466"
         id="path13-3"
         cx="248.98123"
         cy="195.5874"
         rx="37.018108"
         ry="39.02684" />
      <path
         id="path53-9"
         style="fill:url(#radialGradient20-1);fill-rule:evenodd;stroke:none;stroke-width:3.2466"
         d="m 243.80605,192.50542 c -0.003,0.0963 -0.004,0.18774 0,0.28241 l 0.008,-0.008 c 0.0401,-0.0642 0.0401,-0.16047 -0.008,-0.27439 z" />
      <path
         id="path59-0"
         style="fill:url(#radialGradient68-4);fill-rule:evenodd;stroke:none;stroke-width:3.2466"
         d="m 248.97845,156.56045 a 37.018108,39.026842 0 0 0 -1.08632,0.0963 c -0.2484,0.30167 -0.47995,0.59852 -0.63848,0.87933 -3.03498,0.70603 -2.45766,3.74198 -2.35496,6.10302 -0.0417,2.77728 0.61136,6.18758 -2.05644,8.04332 -1.9991,1.66448 -3.11853,4.05536 -3.67341,6.55071 -0.53033,2.23123 -2.49737,0.67394 -1.675,-0.98684 0.19368,-3.58441 3.74329,-5.30681 5.01672,-8.32526 1.33906,-2.85671 -0.1059,-5.79461 -0.58039,-8.62388 0.19849,-1.3559 0.85783,-2.39618 1.73304,-3.26701 a 37.018108,39.026842 0 0 0 -12.33036,4.57719 c 0.93774,0.80712 1.89199,1.81354 1.92376,3.13446 0.009,1.61329 0.97369,2.92956 1.60045,4.33681 1.33842,1.62051 1.7155,3.60142 1.44288,5.64683 0.0369,1.73556 0.21486,4.25529 -1.99841,4.37821 0.41014,0.12837 -0.0867,0.16848 -0.15726,0.19095 -0.10109,-2.72722 0.21711,-5.50594 -0.18244,-8.2009 -0.67635,-1.94272 -1.46181,-3.83922 -2.37155,-5.68004 -0.15084,-1.14891 -0.35526,-2.3803 -1.14426,-3.2837 a 37.018108,39.026842 0 0 0 -5.58058,4.18742 c 1.13639,2.18245 1.67091,4.62869 2.96856,6.7415 0.95203,2.2524 1.35848,4.8121 1.53402,7.23074 -0.33633,-2.52984 -1.28514,-4.99583 -2.23888,-7.32189 -0.32718,-2.50657 -2.11962,-3.80937 -3.89729,-5.14104 a 37.018108,39.026842 0 0 0 -3.37488,4.01332 c 0.13478,1.29653 -0.17764,2.81033 0.77118,3.806 1.45763,1.48748 3.75223,1.12323 5.59717,1.41848 1.42812,1.29654 0.52167,3.5735 0.64683,5.2821 -1.31275,1.58215 -0.66255,-2.30793 -1.77452,-2.83585 -1.58505,-1.11521 -4.10751,-0.81033 -5.12452,-2.86906 -0.67426,-0.82959 -1.06611,-1.85639 -1.50097,-2.8442 a 37.018108,39.026842 0 0 0 -2.26373,3.97192 c 1.53691,0.60334 2.22952,2.66352 2.85249,4.32847 1.73512,-0.17972 5.10191,-0.0963 5.50595,2.73636 1.02567,4.47722 -2.82904,0.0963 -4.77625,-0.40597 -1.61141,-1.2163 -3.30202,-2.64409 -4.75138,-4.27054 a 37.018108,39.026842 0 0 0 -1.73306,5.21583 c 0.18341,0.17008 0.35944,0.37227 0.52247,0.62259 0.41303,2.56595 1.74056,5.14923 4.90064,4.40308 3.83193,-0.95796 4.07789,4.79204 0.14121,3.78113 -2.41122,-0.72529 -4.4246,-2.31146 -6.56735,-3.64843 a 37.018108,39.026842 0 0 0 -0.34002,5.06643 37.018108,39.026842 0 0 0 0.23219,3.35832 c 0.41832,-0.0116 0.86232,0.0481 1.3267,0.19897 2.53007,1.08793 5.01974,1.37676 7.68679,0.9034 1.67451,2.31306 -3.35898,3.9424 -5.2655,3.15934 -1.07894,-0.33537 -2.24239,-0.99326 -3.41635,-1.41046 a 37.018108,39.026842 0 0 0 2.37155,8.79782 c 0.38848,-0.17009 0.84516,-0.20058 1.38479,-0.0642 3.43275,1.93165 4.59474,-1.75192 6.02835,-3.90565 3.20999,-2.92201 5.57993,2.90292 1.74964,3.93887 -2.2674,2.0284 -4.52853,2.70748 -7.49606,1.86569 -0.24294,0.0802 -0.45475,0.19737 -0.63848,0.34018 a 37.018108,39.026842 0 0 0 4.07972,6.91576 c 0.0834,-0.0321 0.17009,-0.0481 0.25706,-0.0642 1.74089,-0.77342 3.49737,-1.54685 5.19087,-2.39634 2.10032,-1.18421 0.52166,-3.81466 2.04816,-5.35671 1.07574,-2.36938 3.98524,-0.78145 2.16423,1.26124 -1.31659,1.83504 -3.29843,3.0422 -4.66845,4.85911 -1.12918,1.24679 -2.39556,2.38479 -3.58219,3.5905 a 37.018108,39.026842 0 0 0 12.67863,9.7017 c 0.69399,-2.26155 1.1672,-4.58616 0.73796,-6.99021 -0.77118,-2.80841 -2.43317,-5.30472 -3.4578,-8.04332 -2.17192,-1.595 1.64561,-4.23604 1.10286,-1.25161 0.004,0.0802 0.004,0.16046 0.008,0.24069 1.60928,3.27953 5.32338,5.59002 5.28208,9.58569 0.0963,2.55857 -1.33087,4.72289 -2.03986,7.09805 a 37.018108,39.026842 0 0 0 13.25079,2.69496 37.018108,39.026842 0 0 0 10.60562,-1.65003 c -0.12677,-2.21631 -1.35157,-4.71984 -3.80608,-4.75145 -2.40633,0.27439 -5.51292,1.13928 -7.10634,-1.35109 -2.10251,-2.90966 -2.42428,-6.88078 -1.39314,-10.25738 0.62051,-2.83874 -2.4878,-4.62885 -2.71152,-7.31371 l 0.47256,0.12837 0.46438,0.12837 v 0.008 c 3.71937,0.96919 5.57901,4.87885 6.05324,8.39987 0.004,2.47063 0.47658,5.24856 3.08466,6.24406 2.39991,1.42812 5.7226,2.29654 6.70833,5.21566 0.23684,0.80071 0.57622,1.65292 0.87067,2.51252 a 37.018108,39.026842 0 0 0 18.77333,-17.04028 c -0.0674,-0.50866 -0.18004,-0.98363 -0.64682,-1.22753 -0.86954,-0.16047 -1.81205,-0.0321 -2.71152,-0.0642 -1.45218,-0.12837 -2.73734,0.53595 -4.12948,0.66271 -0.88751,0.3113 -2.06394,0.51508 -3.10955,0.14442 -0.5929,-0.36586 -1.67572,-0.53274 -1.53401,-0.7959 -1.38656,-0.19736 -1.27905,-2.03995 -1.87403,-3.00176 -0.16094,-1.10398 -2.12984,-0.0642 -2.81102,0.0963 -1.05921,0.30487 -2.19915,0.86168 -3.47439,0.68838 -1.06611,-0.29044 -2.24041,-0.55039 -2.91053,-1.48428 -0.86794,-0.74935 -1.60747,-1.52599 -2.24716,-2.39634 -0.29477,-0.55359 -1.58584,-1.8742 -2.58714,-2.18918 -1.00241,0.14441 -1.55697,0.97561 -2.33837,1.37676 -1.00594,0.11233 -2.30934,0.39474 -2.80275,-0.51348 -0.23732,-0.0136 -0.38382,-0.20057 -0.52246,-0.36425 l 2.71152,-1.24358 c 1.47513,-0.24871 2.92213,-0.85045 4.49432,-0.59692 1.5414,-0.009 1.58505,1.54846 1.79939,2.63704 0.74294,1.22112 2.20793,1.52599 3.48269,1.88222 1.39666,0.35462 2.66354,-0.38511 3.96364,-0.66271 1.75571,0.0642 3.51128,0.0161 5.26548,0 0.6035,0.9371 -0.27904,2.61971 0.82093,3.56563 0.16206,1.61954 1.69498,1.87853 2.87736,1.06066 1.5345,-0.48139 3.11073,-0.83922 4.63528,-1.19384 0.83633,-0.0802 2.01351,-0.66913 3.12613,-0.49744 1.28257,-0.27278 0.35558,1.57253 1.2439,2.16432 0.0353,0.0963 0.0722,0.17651 0.10751,0.26476 a 37.018108,39.026842 0 0 0 3.95533,-14.30392 c -0.42138,0.0802 -0.84436,0.14442 -1.26862,0.21502 -3.8936,-0.24069 -6.87203,-3.96052 -10.93729,-3.52407 -4.61651,1.16175 -9.27027,-0.28883 -13.81465,-1.0783 -4.45048,-1.16656 -8.00522,2.60109 -12.18941,3.21726 l -1.50081,-7.11457 c 1.44031,0.94994 1.88584,3.95202 4.08802,3.40806 4.16741,-2.63319 8.59124,-5.0905 13.48298,-6.05328 3.09462,-1.27727 6.59085,-0.32734 9.2457,1.51798 3.66081,2.95587 8.18658,5.52214 13.04348,5.02503 a 37.018108,39.026842 0 0 0 -6.49271,-21.09516 c -1.33489,1.65982 -3.57189,2.53209 -5.56401,3.13447 -2.93713,0.59692 -6.0752,-0.11232 -8.99695,0.76219 -2.9398,0.98203 -1.94636,5.23332 -4.66016,6.25225 -2.57536,0.52792 -4.87208,-1.57253 -7.44631,-1.33504 -2.36038,1.02856 -4.77937,2.63479 -6.15276,4.89233 -0.38607,-0.14442 -0.77407,-0.30809 -1.08633,-0.58088 -1.22898,-2.47111 2.7008,-3.66768 4.32848,-4.83424 2.2122,-1.41046 4.86905,-1.83344 7.33853,-0.82156 2.237,1.06386 4.62211,-1.70829 4.25385,-3.87244 -0.75546,-3.53113 3.95509,-1.5966 5.88739,-2.13944 2.47227,0.26316 4.99843,0.0802 7.21414,-1.16175 0.92731,-0.21181 2.29196,-1.57734 3.44952,-2.33825 a 37.018108,39.026842 0 0 0 -13.5576,-11.16127 c 0.1786,1.47946 -0.19496,3.03835 0.0995,4.51092 0.35799,1.78963 -0.90773,3.52134 -2.55398,4.12949 -1.28305,0.73171 -2.90284,0.17009 -4.11289,1.03658 -1.50192,1.30617 -1.2293,3.5175 -1.99009,5.20732 -0.27696,1.60623 -1.73422,2.7991 -3.31685,2.98524 -1.26461,0.28081 -2.4556,-0.28241 -3.6817,-0.44769 -2.4912,-0.23909 -4.99292,1.83697 -5.08307,4.33681 0.0498,0.11232 0.0481,0.207 0.008,0.27439 l -0.008,0.008 c -0.28353,0.41238 -2.09782,-0.2054 -1.60866,-0.89538 0.51364,-2.84933 2.94685,-5.02119 5.61375,-5.8957 0.92571,-0.39795 1.91237,-0.28402 2.88565,-0.34821 2.08085,-0.20218 3.39684,-2.20057 3.69001,-4.12115 0.15886,-1.64634 1.66388,-2.7317 3.11783,-3.23395 1.88119,-0.70764 4.17493,-1.13126 5.27378,-3.01011 0.80632,-1.76268 -0.46149,-3.53755 -0.57221,-5.30696 -0.0321,-0.0963 -0.0546,-0.19256 -0.0658,-0.28242 a 37.018108,39.026842 0 0 0 -13.15958,-2.60366 z" />
      <ellipse
         style="fill:#000000;fill-rule:evenodd;stroke:none;stroke-width:4.24556"
         id="path14-7"
         cx="235.56392"
         cy="195.07127"
         rx="16.046215"
         ry="19.255459" />
      <path
         style="fill:#000000;fill-opacity:1;fill-rule:evenodd;stroke:none;stroke-width:4.24556"
         d="m 247.00941,198.69476 -0.37532,-0.18774"
         id="path23-5" />
      <path
         style="fill:#000000;fill-opacity:1;fill-rule:evenodd;stroke:none;stroke-width:4.24556"
         d="m 245.68835,171.91604 8.35845,7.96052"
         id="path25-6" />
      <ellipse
         style="fill:url(#radialGradient70);fill-rule:evenodd;stroke:none;stroke-width:10.6611"
         id="path68"
         cx="349.98923"
         cy="24.364962"
         rx="68.951469"
         ry="39.870625"
         transform="matrix(0.94015213,0.34075502,-0.33754371,0.94130985,0,0)" />
      <g
         id="g112"
         transform="matrix(16.046215,0,0,16.046215,-756.17189,-2446.7104)">
        <path
           style="fill:#ff00ff;fill-opacity:1;fill-rule:evenodd;stroke:none;stroke-width:0.264583"
           d="m 68.593228,158.68384 c -0.170614,-0.62996 -0.264231,-1.39658 0.17424,-1.94259 0.200865,-0.2644 0.626502,-0.12578 0.775065,0.12932 0.183705,0.2473 0.164743,0.56699 0.09544,0.85005 -0.05613,0.18606 -0.06817,0.78667 0.226165,0.45679 0.459101,-0.61853 1.222287,-1.14201 2.025161,-0.98777 0.390539,0.054 0.550526,0.51318 0.404284,0.84535 -0.115251,0.40183 -0.511261,0.58152 -0.829855,0.79333 -0.478372,0.27548 -1.094656,0.3606 -1.448335,0.81892 0.601602,0.0412 1.301263,0.007 1.757325,0.47417 0.303334,0.29872 0.472255,0.7448 0.350297,1.16549 -0.08282,0.39642 -0.478124,0.67343 -0.878759,0.6266 -0.583019,-0.0259 -1.111692,-0.4864 -1.224857,-1.05767 -0.122086,-0.29522 -0.430657,-0.21589 -0.406469,0.0949 -0.04308,0.35112 -0.107914,0.70876 -0.343981,0.98136 -0.22137,0.33376 -0.651401,0.65452 -1.066285,0.48605 -0.37921,-0.18881 -0.538928,-0.67515 -0.378364,-1.06166 0.05283,-0.33375 0.421759,-0.63443 0.304817,-0.96977 -0.29947,-0.06 -0.457856,0.37796 -0.723276,0.49226 -0.312531,0.12205 -0.657675,0.27648 -1.004231,0.16297 -0.365447,-0.0712 -0.58856,-0.49449 -0.428211,-0.834 0.246306,-0.61307 0.953057,-0.85533 1.562287,-0.90425 0.26636,-0.0207 0.560849,-0.0591 0.808834,0.0546 -0.09165,0.26097 -0.457605,0.0326 -0.649241,-0.0224 -0.597092,-0.2535 -1.141455,-0.83557 -1.078841,-1.52377 0.06475,-0.3541 0.495929,-0.43658 0.785182,-0.31772 0.368108,0.0946 0.564055,0.43455 0.72616,0.74718 0.109377,0.18608 0.252754,0.37123 0.465444,0.44231 z"
           id="path83" />
        <path
           style="fill:url(#radialGradient112);fill-opacity:1;fill-rule:evenodd;stroke:none;stroke-width:0.264583"
           d="m 69.039713,159.1138 c -0.0077,-0.62844 0.01738,-1.62046 0.01709,-2.24887 0.05272,0.32215 0.159812,1.01042 0.097,1.33932 -0.0024,0.33087 0.02633,0.66128 0.01817,0.99219 0.122327,-0.45769 0.509382,-0.82266 0.966627,-0.93682 0.428167,-0.16448 1.605017,-0.41594 2.035971,-0.57288 0.289575,0.10936 -0.919193,0.43921 -1.045281,0.51568 -0.428908,0.20874 -0.91777,0.2662 -1.333339,0.50805 -0.190064,0.10568 -0.365678,0.23948 -0.510243,0.40248 -0.0652,0.26859 0.33124,0.29997 0.456919,0.47922 0.320887,0.23996 0.661951,0.45255 1.004878,0.65774 0.222403,0.19502 0.656458,1.05024 0.89507,1.22871 -0.09571,0.20813 -0.551903,-0.75984 -0.690033,-0.7867 -0.396224,-0.29244 -0.8398,-0.51829 -1.222578,-0.82819 -0.231002,-0.2167 -0.393087,-0.50859 -0.6729,-0.67098 0.09289,0.26505 0.238783,0.52644 0.165771,0.81623 -0.006,0.34079 0.0036,0.68162 -0.0013,1.02241 -0.168684,0.15019 -0.494645,0.86225 -0.724139,0.94687 -0.109856,-0.17134 0.364545,-0.87849 0.345195,-1.11033 0.01803,-0.32965 -0.05222,-0.66596 0.05636,-0.98642 0.03731,-0.21921 0.134253,-0.44137 0.120068,-0.66177 -0.05451,0.27432 -0.227935,0.54049 -0.509175,0.62759 -0.411927,0.19512 -0.870456,0.26563 -1.280644,0.46551 -0.112464,0.0374 -0.950004,0.30142 -0.945604,0.14956 0.24439,-0.30846 1.189246,-0.47961 1.530975,-0.6322 0.394262,-0.15703 0.781756,-0.35252 1.095142,-0.64354 -0.04731,-0.16192 -0.363778,-0.0593 -0.483424,-0.20266 -0.231888,-0.1378 -0.510188,-0.17644 -0.731944,-0.32722 -0.204931,-0.15726 -0.582094,-0.65254 -0.696143,-0.87926 0.263523,0.12671 0.633357,0.69359 0.904537,0.8139 0.311637,0.21469 0.642814,0.44425 1.032774,0.46741 0.03809,0.0105 0.07477,0.0283 0.104216,0.055 z"
           id="path84"
           sodipodi:nodetypes="scccccccccccccccccccccccccccccccs" />
        <circle
           style="fill:#ffff00;fill-opacity:1;fill-rule:evenodd;stroke:none;stroke-width:0.260472"
           id="path81"
           cx="69.050003"
           cy="159.64999"
           r="1.05" />
        <circle
           style="opacity:1;fill:url(#pattern113);fill-opacity:1;fill-rule:evenodd;stroke:none;stroke-width:0.260472;stroke-opacity:1"
           id="path81-5"
           cx="69.050003"
           cy="159.64999"
           r="1.05" />
      </g>
      <ellipse
         style="fill:url(#radialGradient70-9);fill-rule:evenodd;stroke:none;stroke-width:5.32887"
         id="path68-2"
         cx="239.76335"
         cy="258.99722"
         rx="31.090034"
         ry="22.092213"
         transform="matrix(0.90326427,0.42908467,-0.26389927,0.96455024,0,0)" />
    </g>
  <metadata
     id="metadata2">
    <rdf:RDF>
      <cc:Work
         rdf:about="">
        <dc:title>Pacman hippyo</dc:title>
        <dc:date>23-07-2025</dc:date>
        <dc:description>La mia prima creazione: ho seguito un tutorial veloce per realizzarlo</dc:description>
      </cc:Work>
    </rdf:RDF>
  </metadata>
</svg>
