<?xml version="1.0" encoding="UTF-8" standalone="no"?>
<!-- Created with Inkscape (http://www.inkscape.org/) -->

<svg
   data-date="24-07-2025"
   data-title="vichingo"
   data-description="un vichingo che sta urlando"
   width="100mm"
   height="100mm"
   viewBox="0 0 100 100"
   version="1.1"
   id="svg1"
   inkscape:version="1.3.2 (091e20e, 2023-11-25, custom)"
   sodipodi:docname="vichingo.svg"
   xmlns:inkscape="http://www.inkscape.org/namespaces/inkscape"
   xmlns:sodipodi="http://sodipodi.sourceforge.net/DTD/sodipodi-0.dtd"
   xmlns="http://www.w3.org/2000/svg"
   xmlns:svg="http://www.w3.org/2000/svg">
  <sodipodi:namedview
     id="namedview1"
     pagecolor="#ffffff"
     bordercolor="#000000"
     borderopacity="0.25"
     inkscape:showpageshadow="2"
     inkscape:pageopacity="0.0"
     inkscape:pagecheckerboard="0"
     inkscape:deskcolor="#d1d1d1"
     inkscape:document-units="mm"
     inkscape:zoom="1.4142136"
     inkscape:cx="106.06601"
     inkscape:cy="284.61047"
     inkscape:window-width="1920"
     inkscape:window-height="991"
     inkscape:window-x="-9"
     inkscape:window-y="-9"
     inkscape:window-maximized="1"
     inkscape:current-layer="layer1" />
  <defs
     id="defs1">
    <inkscape:path-effect
       effect="mirror_symmetry"
       start_point="188.97638,-23.889418"
       end_point="188.97638,354.06334"
       center_point="188.97638,165.08696"
       id="path-effect5"
       is_visible="true"
       lpeversion="1.2"
       lpesatellites=""
       mode="vertical"
       discard_orig_path="false"
       fuse_paths="false"
       oposite_fuse="false"
       split_items="false"
       split_open="false"
       link_styles="false" />
    <inkscape:path-effect
       effect="mirror_symmetry"
       start_point="50,-6.3207417"
       end_point="50,93.679258"
       center_point="50,43.679258"
       id="path-effect98"
       is_visible="true"
       lpeversion="1.2"
       lpesatellites=""
       mode="vertical"
       discard_orig_path="false"
       fuse_paths="false"
       oposite_fuse="false"
       split_items="false"
       split_open="false"
       link_styles="false" />
    <inkscape:path-effect
       effect="mirror_symmetry"
       start_point="50,-6.3207417"
       end_point="50,93.679258"
       center_point="50,43.679258"
       id="path-effect87"
       is_visible="true"
       lpeversion="1.2"
       lpesatellites=""
       mode="vertical"
       discard_orig_path="false"
       fuse_paths="false"
       oposite_fuse="false"
       split_items="false"
       split_open="false"
       link_styles="true" />
    <inkscape:path-effect
       effect="mirror_symmetry"
       start_point="50,-6.3207417"
       end_point="50,93.679258"
       center_point="50,43.679258"
       id="path-effect86"
       is_visible="true"
       lpeversion="1.2"
       lpesatellites=""
       mode="vertical"
       discard_orig_path="false"
       fuse_paths="false"
       oposite_fuse="false"
       split_items="false"
       split_open="false"
       link_styles="false" />
    <inkscape:path-effect
       effect="mirror_symmetry"
       start_point="50,0"
       end_point="50,100"
       center_point="50,50"
       id="path-effect85"
       is_visible="true"
       lpeversion="1.2"
       lpesatellites=""
       mode="vertical"
       discard_orig_path="false"
       fuse_paths="false"
       oposite_fuse="false"
       split_items="false"
       split_open="false"
       link_styles="false" />
    <inkscape:path-effect
       effect="mirror_symmetry"
       start_point="50,-6.3207417"
       end_point="50,93.679258"
       center_point="50,43.679258"
       id="path-effect84"
       is_visible="true"
       lpeversion="1.2"
       lpesatellites=""
       mode="vertical"
       discard_orig_path="false"
       fuse_paths="false"
       oposite_fuse="false"
       split_items="false"
       split_open="false"
       link_styles="false" />
    <inkscape:path-effect
       effect="mirror_symmetry"
       start_point="47.642947,6.1869677"
       end_point="47.642947,81.232363"
       center_point="47.642947,43.709665"
       id="path-effect83"
       is_visible="true"
       lpeversion="1.2"
       lpesatellites=""
       mode="vertical"
       discard_orig_path="false"
       fuse_paths="false"
       oposite_fuse="false"
       split_items="false"
       split_open="false"
       link_styles="false" />
    <inkscape:path-effect
       effect="mirror_symmetry"
       start_point="50,0"
       end_point="50,100"
       center_point="50,50"
       id="path-effect82"
       is_visible="true"
       lpeversion="1.2"
       lpesatellites=""
       mode="vertical"
       discard_orig_path="false"
       fuse_paths="false"
       oposite_fuse="false"
       split_items="false"
       split_open="false"
       link_styles="false" />
    <inkscape:path-effect
       effect="mirror_symmetry"
       start_point="50,-6.3207417"
       end_point="50,93.679258"
       center_point="50,43.679258"
       id="path-effect81"
       is_visible="true"
       lpeversion="1.2"
       lpesatellites=""
       mode="vertical"
       discard_orig_path="false"
       fuse_paths="false"
       oposite_fuse="false"
       split_items="false"
       split_open="false"
       link_styles="false" />
    <inkscape:path-effect
       effect="mirror_symmetry"
       start_point="50,-6.3207417"
       end_point="50,93.679258"
       center_point="50,43.679258"
       id="path-effect80"
       is_visible="true"
       lpeversion="1.2"
       lpesatellites=""
       mode="vertical"
       discard_orig_path="false"
       fuse_paths="false"
       oposite_fuse="false"
       split_items="false"
       split_open="false"
       link_styles="false" />
    <inkscape:path-effect
       effect="mirror_symmetry"
       start_point="50,-6.3207417"
       end_point="50,93.679258"
       center_point="50,43.679258"
       id="path-effect79"
       is_visible="true"
       lpeversion="1.2"
       lpesatellites=""
       mode="vertical"
       discard_orig_path="false"
       fuse_paths="false"
       oposite_fuse="false"
       split_items="false"
       split_open="false"
       link_styles="false" />
    <inkscape:path-effect
       effect="mirror_symmetry"
       start_point="50,-6.3207417"
       end_point="50,93.679258"
       center_point="50,43.679258"
       id="path-effect78"
       is_visible="true"
       lpeversion="1.2"
       lpesatellites=""
       mode="vertical"
       discard_orig_path="false"
       fuse_paths="false"
       oposite_fuse="false"
       split_items="false"
       split_open="false"
       link_styles="false" />
    <inkscape:path-effect
       effect="mirror_symmetry"
       start_point="50,-6.3207417"
       end_point="50,93.679258"
       center_point="50,43.679258"
       id="path-effect77"
       is_visible="true"
       lpeversion="1.2"
       lpesatellites=""
       mode="vertical"
       discard_orig_path="false"
       fuse_paths="false"
       oposite_fuse="false"
       split_items="false"
       split_open="false"
       link_styles="false" />
    <inkscape:path-effect
       effect="mirror_symmetry"
       start_point="188.97639,-59.411639"
       end_point="188.97639,406.0213"
       center_point="188.97639,173.30483"
       id="path-effect60"
       is_visible="true"
       lpeversion="1.2"
       lpesatellites=""
       mode="vertical"
       discard_orig_path="false"
       fuse_paths="false"
       oposite_fuse="false"
       split_items="false"
       split_open="false"
       link_styles="false" />
    <inkscape:path-effect
       effect="mirror_symmetry"
       start_point="188.97639,-59.411639"
       end_point="188.97639,406.0213"
       center_point="188.97639,173.30483"
       id="path-effect59"
       is_visible="true"
       lpeversion="1.2"
       lpesatellites=""
       mode="vertical"
       discard_orig_path="false"
       fuse_paths="false"
       oposite_fuse="false"
       split_items="false"
       split_open="false"
       link_styles="false" />
    <inkscape:path-effect
       effect="mirror_symmetry"
       start_point="188.97639,-59.411639"
       end_point="188.97639,406.0213"
       center_point="188.97639,173.30483"
       id="path-effect58"
       is_visible="true"
       lpeversion="1.2"
       lpesatellites=""
       mode="vertical"
       discard_orig_path="false"
       fuse_paths="false"
       oposite_fuse="false"
       split_items="false"
       split_open="false"
       link_styles="false" />
    <inkscape:path-effect
       effect="mirror_symmetry"
       start_point="50.000003,-15.719329"
       end_point="50.000003,107.42647"
       center_point="50.000003,45.853569"
       id="path-effect14"
       is_visible="true"
       lpeversion="1.2"
       lpesatellites=""
       mode="vertical"
       discard_orig_path="false"
       fuse_paths="false"
       oposite_fuse="false"
       split_items="false"
       split_open="false"
       link_styles="false" />
    <inkscape:path-effect
       effect="mirror_symmetry"
       start_point="50.000003,-15.719329"
       end_point="50.000003,107.42647"
       center_point="50.000003,45.853569"
       id="path-effect13"
       is_visible="true"
       lpeversion="1.2"
       lpesatellites=""
       mode="vertical"
       discard_orig_path="false"
       fuse_paths="false"
       oposite_fuse="false"
       split_items="false"
       split_open="false"
       link_styles="false" />
    <inkscape:path-effect
       center_point="50.000003,45.853569"
       end_point="50.000003,107.42647"
       start_point="50.000003,-15.719329"
       effect="mirror_symmetry"
       id="path-effect12"
       is_visible="true"
       lpeversion="1.2"
       lpesatellites=""
       mode="vertical"
       discard_orig_path="false"
       fuse_paths="false"
       oposite_fuse="false"
       split_items="false"
       split_open="false"
       link_styles="false" />
    <inkscape:path-effect
       effect="mirror_symmetry"
       start_point="49.544457,50.32685"
       end_point="49.544457,62.422608"
       center_point="49.544457,56.374729"
       id="path-effect6"
       is_visible="true"
       lpeversion="1.2"
       lpesatellites=""
       mode="free"
       discard_orig_path="false"
       fuse_paths="false"
       oposite_fuse="false"
       split_items="false"
       split_open="false"
       link_styles="false" />
    <inkscape:path-effect
       effect="mirror_symmetry"
       start_point="50,0"
       end_point="50,100"
       center_point="50,50"
       id="path-effect4"
       is_visible="true"
       lpeversion="1.2"
       lpesatellites=""
       mode="vertical"
       discard_orig_path="false"
       fuse_paths="false"
       oposite_fuse="false"
       split_items="false"
       split_open="false"
       link_styles="false" />
    <inkscape:path-effect
       effect="clone_original"
       css_properties=""
       attributes="style,clip-path,mask"
       linkeditem="#path2"
       is_visible="true"
       method="d"
       allow_transforms="true"
       id="path-effect3"
       lpeversion="1" />
    <inkscape:path-effect
       effect="mirror_symmetry"
       start_point="58.73343,-11.043636"
       end_point="36.767539,86.514038"
       center_point="47.750485,37.735201"
       id="path-effect35"
       is_visible="true"
       lpeversion="1.2"
       lpesatellites=""
       mode="vertical"
       discard_orig_path="false"
       fuse_paths="false"
       oposite_fuse="false"
       split_items="false"
       split_open="false"
       link_styles="false" />
    <inkscape:path-effect
       effect="mirror_symmetry"
       start_point="31.534994,-0.73723233"
       end_point="31.534994,99.262768"
       center_point="31.534994,49.262768"
       id="path-effect78-9"
       is_visible="true"
       lpeversion="1.2"
       lpesatellites=""
       mode="vertical"
       discard_orig_path="false"
       fuse_paths="false"
       oposite_fuse="false"
       split_items="false"
       split_open="false"
       link_styles="false" />
  </defs>
  <g
     inkscape:label="Livello 1"
     inkscape:groupmode="layer"
     id="layer1">
    <g
       id="g1"
       transform="translate(0,6.3207417)">
      <path
         id="path1"
         style="display:inline;fill:#e9c6af;fill-rule:evenodd;stroke:#000000"
         d="M 75.350513,48.735457 C 72.043221,68.053567 70.738892,85.748707 50,85.873699 29.827652,85.995276 29.676571,70.302524 25.575529,50.455248 21.853798,32.443672 24.209999,19.527503 50,19.27013 75.596968,19.014683 78.45411,30.607141 75.350513,48.735457 Z"
         sodipodi:nodetypes="sssss" />
      <path
         style="fill:#ffffff;fill-opacity:1;fill-rule:evenodd;stroke:none;stroke-width:1;stroke-dasharray:none;stroke-opacity:0.983759"
         id="path98"
         inkscape:path-effect="#path-effect98"
         sodipodi:type="arc"
         sodipodi:cx="38.259632"
         sodipodi:cy="44.340012"
         sodipodi:rx="5.3320274"
         sodipodi:ry="1.7305702"
         d="m 43.59166,44.340012 c 0,0.955767 -2.38723,1.73057 -5.332028,1.73057 -2.944797,0 -5.332027,-0.774803 -5.332027,-1.73057 0,-0.955768 2.38723,-1.730571 5.332027,-1.730571 2.944798,0 5.332028,0.774803 5.332028,1.730571 z m 12.81668,0 c 0,0.955767 2.38723,1.73057 5.332028,1.73057 2.944797,0 5.332027,-0.774803 5.332027,-1.73057 0,-0.955768 -2.38723,-1.730571 -5.332027,-1.730571 -2.944798,0 -5.332028,0.774803 -5.332028,1.730571 z" />
      <path
         original-d="m 44.185415,44.35078 a 5.8208332,2.0835936 0 0 1 -5.820833,2.083594 5.8208332,2.0835936 0 0 1 -5.820833,-2.083594 5.8208332,2.0835936 0 0 1 5.820833,-2.083593 5.8208332,2.0835936 0 0 1 5.820833,2.083593 z"
         d="m 44.185415,44.35078 c 10e-7,1.150737 -2.606075,2.083594 -5.820833,2.083594 -3.214758,0 -5.820834,-0.932857 -5.820833,-2.083594 1e-6,-1.150737 2.606076,-2.083593 5.820833,-2.083593 3.214757,0 5.820832,0.932856 5.820833,2.083593 z m 10.821033,-0.460385 c -3.134904,1.119205 3.414212,2.543979 6.62897,2.543979 3.214758,0 6.078031,0.47007 5.820833,-2.083594 -0.319151,-3.168783 1.164236,-2.235673 -5.820833,-2.083593 -3.756012,0.08178 -5.023877,1.050167 -6.62897,1.623208 z m 0.808137,0.460385 c -10e-7,1.150737 2.606075,2.083594 5.820833,2.083594 3.214758,0 5.820834,-0.932857 5.820833,-2.083594 -10e-7,-1.150737 -2.606076,-2.083593 -5.820833,-2.083593 -3.214757,0 -5.820832,0.932856 -5.820833,2.083593 z M 44.993552,43.890395 c 3.134904,1.119205 -3.414212,2.543979 -6.62897,2.543979 -3.214758,0 -6.078031,0.47007 -5.820833,-2.083594 0.319151,-3.168783 -1.164236,-2.235673 5.820833,-2.083593 3.756012,0.08178 5.023877,1.050167 6.62897,1.623208 z"
         id="use3"
         class="fromclone"
         style="fill:#dc0000;fill-opacity:1;fill-rule:evenodd;stroke:#000000;stroke-opacity:0.983759"
         sodipodi:nodetypes="ssssssssss"
         inkscape:path-effect="#path-effect87"
         inkscape:original-d="m 44.185415,44.35078 c 10e-7,1.150737 -2.606075,2.083594 -5.820833,2.083594 -3.214758,0 -5.820834,-0.932857 -5.820833,-2.083594 1e-6,-1.150737 2.606076,-2.083593 5.820833,-2.083593 3.214757,0 5.820832,0.932856 5.820833,2.083593 z m 10.821033,-0.460385 c -3.134904,1.119205 3.414212,2.543979 6.62897,2.543979 3.214758,0 6.078031,0.47007 5.820833,-2.083594 -0.319151,-3.168783 1.164236,-2.235673 -5.820833,-2.083593 -3.756012,0.08178 -5.023877,1.050167 -6.62897,1.623208 z" />
      <path
         style="fill:#000000;fill-rule:evenodd;stroke:#000000;stroke-width:1.58372;stroke-dasharray:none;stroke-opacity:1"
         id="path5"
         inkscape:path-effect="#path-effect83"
         sodipodi:type="arc"
         sodipodi:cx="62.16021"
         sodipodi:cy="44.223083"
         sodipodi:rx="1.1580762"
         sodipodi:ry="0.94760144"
         d="m 63.318286,44.223083 c 0,0.523346 -0.518489,0.947602 -1.158076,0.947602 -0.639588,0 -1.158077,-0.424256 -1.158077,-0.947602 0,-0.523345 0.518489,-0.947601 1.158077,-0.947601 0.639587,0 1.158076,0.424256 1.158076,0.947601 z m -31.350677,0 c 0,0.523346 0.518488,0.947602 1.158076,0.947602 0.639588,0 1.158076,-0.424256 1.158076,-0.947602 0,-0.523345 -0.518488,-0.947601 -1.158076,-0.947601 -0.639588,0 -1.158076,0.424256 -1.158076,0.947601 z"
         transform="matrix(0.80441881,0,0,1.3325268,11.675117,-14.565042)" />
      <path
         style="fill:#000000;fill-rule:evenodd;stroke:#000000;stroke-width:1;stroke-dasharray:none;stroke-opacity:1"
         d="m 47.614067,50.32685 c -1.801837,3.320478 -2.344598,7.026404 -3.191014,10.645744 -0.361203,2.096211 1.63706,1.17755 2.728177,0.883195 0.711643,0.08671 2.894725,1.647939 2.291007,-0.02293 -0.989527,-1.483442 -3.583525,0.08737 -4.473306,-1.062927 0.558251,-2.546306 1.771541,-7.927 2.755304,-10.358549 m 3.750612,-0.08453 c 1.801837,3.320478 2.344598,7.026404 3.191014,10.645744 0.361203,2.096211 -1.63706,1.17755 -2.728177,0.883195 -0.711643,0.08671 -2.894725,1.647939 -2.291007,-0.02293 0.989527,-1.483442 3.583525,0.08737 4.473306,-1.062927 -0.558251,-2.546306 -1.771541,-7.927 -2.755304,-10.358549"
         id="path6"
         sodipodi:nodetypes="cccccc"
         inkscape:path-effect="#path-effect6"
         inkscape:original-d="m 47.614067,50.32685 c -1.801837,3.320478 -2.344598,7.026404 -3.191014,10.645744 -0.361203,2.096211 1.63706,1.17755 2.728177,0.883195 0.711643,0.08671 2.894725,1.647939 2.291007,-0.02293 -0.989527,-1.483442 -3.583525,0.08737 -4.473306,-1.062927 0.558251,-2.546306 1.771541,-7.927 2.755304,-10.358549" />
      <ellipse
         style="display:inline;fill:#000000;fill-rule:evenodd;stroke:#000000;stroke-width:1;stroke-dasharray:none;stroke-opacity:1"
         id="path7"
         cx="50"
         cy="73.479073"
         rx="7.2029138"
         ry="6.7819638" />
      <path
         style="fill:#f8f8e7;fill-opacity:1;fill-rule:evenodd;stroke:#000000;stroke-width:1;stroke-dasharray:none;stroke-opacity:1"
         d="M 72.964579,18.662094 C 85.266317,13.535449 85.695177,2.121597 86.419463,2.6985386 c 0.34353,3.3051073 0.636246,15.7111224 -2.291153,17.8478804 -2.230371,2.120929 -6.164383,4.798167 -8.913252,5.938039 M 33.144062,9.6961859 C 24.226663,-0.20811782 28.73103,-10.704337 27.829368,-10.49349 c -1.72691,2.8389309 -7.308451,13.92231 -5.579335,17.1075195 1.106134,2.87217 3.513081,6.9771255 5.508148,9.1851325"
         id="path35"
         sodipodi:nodetypes="cccc"
         inkscape:path-effect="#path-effect35"
         inkscape:original-d="M 72.964579,18.662094 C 85.266317,13.535449 85.695177,2.121597 86.419463,2.6985386 c 0.34353,3.3051073 0.636246,15.7111224 -2.291153,17.8478804 -2.230371,2.120929 -6.164383,4.798167 -8.913252,5.938039"
         transform="rotate(-12.689,75.605188,30.591342)" />
      <path
         style="fill:#a56d00;fill-opacity:1;fill-rule:evenodd;stroke:#000000;stroke-width:1;stroke-dasharray:none;stroke-opacity:1"
         d="m 24.672318,32.670359 c 0.321519,3.797353 -2.437362,7.352696 -2.419041,11.120549 -0.576429,3.156991 2.83362,-3.250193 4.342105,-3.496165 1.304369,-0.419956 4.720306,-4.719671 3.724374,-1.151787 -0.223756,2.224653 -0.486262,1.593945 0.334258,-0.04259 1.068336,-1.227784 4.496924,-3.70547 3.618702,-0.40424 0.439266,3.367026 4.123902,-4.781592 4.277648,0.257583 0.690462,2.53716 2.780659,-4.506554 3.958702,-1.130465 0.340846,3.491353 2.577494,-3.934746 2.51848,0.0805 1.191984,3.854607 4.307784,-3.922573 3.692292,0.656064 1.823074,3.14137 6.218935,-5.222011 5.550971,-0.410684 0.663692,2.016781 1.816116,-2.886779 3.513999,-0.472752 1.661307,1.286295 1.260186,-2.564148 1.386924,0.01071 1.20721,3.369034 2.551707,-2.301201 3.301445,0.842678 1.046224,-0.679497 1.162639,-1.807258 2.116422,-0.24932 1.399455,0.04499 2.583983,-3.906557 3.400116,-0.864444 1.456795,0.704127 0.949059,-2.233304 2.383633,-0.352328 1.602345,0.641798 4.368858,4.431271 3.650957,0.383617 0.661064,-0.645625 0.67691,3.058912 1.577043,3.740463 -0.476084,2.564969 2.041948,2.750451 1.557361,0.132089 -0.250434,-2.089959 2.305828,-0.666139 -1.886231,-8.396304 -0.250122,-0.461226 -2.576631,0.207672 -3.299328,0.141066 -3.610192,-1.184614 -4.288291,1.36561 -7.960104,1.205212 -3.646906,0.480183 -7.520129,-0.673562 -11.175488,-0.298775 -4.462622,0.846357 -7.108999,-0.01794 -11.189363,-0.194341 -3.457823,0.200783 -5.188839,0.272654 -8.509915,-0.410418 -1.773225,0.09341 -6.459696,-0.04965 -8.115192,-0.508803"
         id="path60"
         sodipodi:nodetypes="ccccccccccccccccccccscccccc" />
      <path
         style="fill:none;fill-opacity:1;fill-rule:evenodd;stroke:#000000;stroke-width:1;stroke-dasharray:none;stroke-opacity:1"
         d="m 56.360461,47.286661 c 3.048698,0.402998 6.149182,0.796118 9.202936,0.213135 0.817126,-0.09089 1.657584,-0.257325 2.349786,-0.72762 m -24.273644,0.514485 c -3.048698,0.402998 -6.149182,0.796118 -9.202936,0.213135 -0.817126,-0.09089 -1.657584,-0.257325 -2.349786,-0.72762"
         id="path75"
         inkscape:path-effect="#path-effect78"
         inkscape:original-d="m 56.360461,47.286661 c 3.048698,0.402998 6.149182,0.796118 9.202936,0.213135 0.817126,-0.09089 1.657584,-0.257325 2.349786,-0.72762" />
      <path
         style="fill:none;fill-opacity:1;fill-rule:evenodd;stroke:#000000;stroke-width:1;stroke-dasharray:none;stroke-opacity:1"
         d="m 55.893228,41.275 c 2.731319,-0.08422 5.36291,-0.912295 8.079023,-1.156653 1.106078,-0.128745 2.787365,0.244907 3.901342,0.225187 0.815076,-0.01592 1.012691,1.585062 0.918072,2.320504 M 44.106772,41.275 c -2.731319,-0.08422 -5.36291,-0.912295 -8.079023,-1.156653 -1.106078,-0.128745 -2.787365,0.244907 -3.901342,0.225187 -0.815076,-0.01592 -1.012691,1.585062 -0.918072,2.320504"
         id="path76"
         inkscape:path-effect="#path-effect77"
         inkscape:original-d="m 55.893228,41.275 c 2.731319,-0.08422 5.36291,-0.912295 8.079023,-1.156653 1.106078,-0.128745 2.787365,0.244907 3.901342,0.225187 0.815076,-0.01592 1.012691,1.585062 0.918072,2.320504"
         sodipodi:nodetypes="cccc" />
      <path
         style="fill:none;fill-opacity:1;fill-rule:evenodd;stroke:#000000;stroke-width:1;stroke-dasharray:none;stroke-opacity:1"
         d="M 66.416477,74.227427 C 70.656076,65.89089 72.890895,56.465731 72.356578,47.099574 M 33.583523,74.227427 C 29.343924,65.89089 27.109105,56.465731 27.643422,47.099574"
         id="path78"
         inkscape:path-effect="#path-effect80"
         inkscape:original-d="M 66.416477,74.227427 C 70.656076,65.89089 72.890895,56.465731 72.356578,47.099574" />
      <path
         style="fill:none;fill-opacity:1;fill-rule:evenodd;stroke:#000000;stroke-width:1;stroke-dasharray:none;stroke-opacity:1"
         d="m 70.345339,50.654256 c 0.15439,6.638617 -1.366838,13.226943 -3.97305,19.299817 -0.244211,0.515287 -0.416174,2.151098 -1.265423,1.700879 M 29.654661,50.654256 c -0.15439,6.638617 1.366838,13.226943 3.97305,19.299817 0.244211,0.515287 0.416174,2.151098 1.265423,1.700879"
         id="path79"
         inkscape:path-effect="#path-effect79"
         inkscape:original-d="m 70.345339,50.654256 c 0.15439,6.638617 -1.366838,13.226943 -3.97305,19.299817 -0.244211,0.515287 -0.416174,2.151098 -1.265423,1.700879" />
      <path
         style="fill:none;fill-opacity:1;fill-rule:evenodd;stroke:#000000;stroke-width:1;stroke-dasharray:none;stroke-opacity:1"
         d="m 49.999445,45.197796 c 0.825074,-3.030311 0.708099,-3.409577 4.069173,-4.786621 m -4.068063,4.786621 c -0.825074,-3.030311 -0.708099,-3.409577 -4.069173,-4.786621"
         id="path81"
         sodipodi:nodetypes="cc"
         inkscape:original-d="m 49.999445,45.197796 c 0.825074,-3.030311 0.708099,-3.409577 4.069173,-4.786621"
         inkscape:path-effect="#path-effect81" />
      <path
         style="fill:none;fill-opacity:1;fill-rule:evenodd;stroke:#000000;stroke-width:1;stroke-dasharray:none;stroke-opacity:1"
         d="m 34.925,67.204166 c 2.554283,4.186025 4.291385,8.837382 7.016445,12.916222 1.794473,1.881363 5.525856,3.488572 8.155895,3.05317 M 65.075,67.204166 c -2.554283,4.186025 -4.291385,8.837382 -7.016445,12.916222 -1.794473,1.881363 -5.525856,3.488572 -8.155895,3.05317"
         id="path83"
         inkscape:path-effect="#path-effect84"
         inkscape:original-d="m 34.925,67.204166 c 2.554283,4.186025 4.291385,8.837382 7.016445,12.916222 1.794473,1.881363 5.525856,3.488572 8.155895,3.05317"
         sodipodi:nodetypes="ccc" />
      <path
         id="path86"
         style="fill:none;fill-opacity:1;fill-rule:evenodd;stroke:#000000;stroke-width:1;stroke-dasharray:none;stroke-opacity:1"
         d="m 46.023813,45.088368 c 0.643933,1.443938 1.736587,2.653162 2.245047,4.162731 m 5.707327,-4.162731 C 53.332254,46.532306 52.2396,47.74153 51.73114,49.251099"
         inkscape:path-effect="#path-effect86"
         inkscape:original-d="m 46.023813,45.088368 c 0.643933,1.443938 1.736587,2.653162 2.245047,4.162731" />
      <path
         style="fill:none;fill-opacity:1;fill-rule:evenodd;stroke:#000000;stroke-width:1;stroke-dasharray:none;stroke-opacity:1"
         d="M 59.531249,86.386457 59.400651,86.34142"
         id="path87" />
      <path
         style="fill:none;fill-opacity:1;fill-rule:evenodd;stroke:#000000;stroke-width:1;stroke-dasharray:none;stroke-opacity:0.983759"
         d="m 40.621627,42.726374 c 0.22989,0.98449 0.247693,2.302165 0.795146,3.040173"
         id="path99" />
      <path
         style="fill:none;fill-opacity:1;fill-rule:evenodd;stroke:#000000;stroke-width:1;stroke-dasharray:none;stroke-opacity:0.983759"
         d="m 35.321875,42.647526 c -0.278834,1.104372 -0.633914,2.227724 -1.351466,3.132954 l -0.147884,0.09236 -0.170836,0.03236"
         id="path100" />
      <path
         style="fill:none;fill-opacity:1;fill-rule:evenodd;stroke:#000000;stroke-width:1;stroke-dasharray:none;stroke-opacity:0.983759"
         d="m 56.804796,43.381184 c 1.046648,0.843435 2.240525,1.979395 3.354583,2.736473 l 0.02026,-1.69e-4 0.507248,0.303885"
         id="path101"
         sodipodi:nodetypes="cccc" />
      <path
         style="fill:none;fill-opacity:1;fill-rule:evenodd;stroke:#000000;stroke-width:1;stroke-dasharray:none;stroke-opacity:0.983759"
         d="m 64.358502,42.609443 c 0.123399,0.873956 -0.274046,2.31518 0.771758,3.086978"
         id="path102"
         sodipodi:nodetypes="cc" />
      <path
         style="fill:#00ffff;fill-opacity:1;fill-rule:evenodd;stroke:#000000;stroke-width:0.334066;stroke-dasharray:none;stroke-opacity:0.983759"
         d="m 139.07906,173.27272 c -2.25975,-0.24896 -4.90264,-0.72248 -6.68322,-1.19741 l -0.8496,-0.22661 0.38474,-0.67379 c 0.91877,-1.60903 1.94696,-4.20943 2.73321,-6.91262 l 0.50349,-1.73102 1.20439,-0.18757 c 1.53729,-0.23942 3.80651,-0.49524 3.86593,-0.43583 0.0251,0.0251 -0.0914,0.31822 -0.25893,0.65134 -0.74064,1.47279 -1.07189,3.05712 -1.06912,5.11349 0.003,2.06551 0.33327,3.6502 1.06456,5.10442 l 0.30002,0.59662 -0.24418,-0.0116 c -0.1343,-0.006 -0.56238,-0.0466 -0.95129,-0.0895 z"
         id="path103"
         transform="scale(0.26458333)" />
      <path
         style="fill:#00ffff;fill-opacity:1;fill-rule:evenodd;stroke:#000000;stroke-width:0.334066;stroke-dasharray:none;stroke-opacity:0.983759"
         d="m 149.4647,173.34639 c 0,-0.0199 0.13533,-0.33011 0.30074,-0.6894 0.33872,-0.73574 0.68605,-1.85314 0.86244,-2.77459 0.17635,-0.92118 0.15303,-3.69117 -0.0389,-4.62643 -0.18967,-0.92404 -0.5966,-2.14733 -0.94177,-2.83111 l -0.26447,-0.52392 0.32826,0.035 c 1.47751,0.15739 1.91698,0.21918 1.97478,0.27762 0.0367,0.0371 0.21062,0.96241 0.38648,2.05621 0.74221,4.61645 1.18067,6.53277 1.81459,7.93085 0.14436,0.31839 0.26248,0.58885 0.26248,0.60102 0,0.0447 -0.60955,0.1323 -2.07713,0.29858 -2.1561,0.24431 -2.60745,0.28692 -2.60745,0.2462 z"
         id="path104"
         transform="scale(0.26458333)" />
      <path
         style="fill:#00ffff;fill-opacity:1;fill-rule:evenodd;stroke:#000000;stroke-width:0.334066;stroke-dasharray:none;stroke-opacity:0.983759"
         d="m 226.75775,171.45734 c -2.42973,-1.83873 -8.93841,-7.34439 -8.81773,-7.45889 0.10254,-0.0973 2.73303,-0.829 3.93861,-1.09559 1.83439,-0.40563 3.57317,-0.67002 6.35899,-0.96694 l 0.32827,-0.035 -0.25094,0.49939 c -0.36981,0.73599 -0.67418,1.63373 -0.90592,2.67209 -0.17559,0.78675 -0.20553,1.16554 -0.20553,2.60028 0,1.80812 0.15143,2.80816 0.62121,4.10237 0.11493,0.31665 0.19974,0.58496 0.18845,0.59625 -0.0113,0.0113 -0.57622,-0.4 -1.25541,-0.91398 z"
         id="path105"
         transform="scale(0.26458333)" />
      <path
         style="fill:#00ffff;fill-opacity:1;fill-rule:evenodd;stroke:#000000;stroke-width:0.334066;stroke-dasharray:none;stroke-opacity:0.983759"
         d="m 237.97586,172.78574 c 0.73796,-1.49617 1.06395,-3.06279 1.06395,-5.11304 0,-2.05078 -0.32597,-3.61684 -1.06449,-5.11413 -0.16448,-0.33347 -0.29905,-0.62647 -0.29905,-0.65111 0,-0.0633 2.96382,0.2527 3.50219,0.3734 0.18455,0.0414 0.18839,0.0837 0.23474,2.58437 0.0489,2.64016 0.1493,3.60355 0.50894,4.88459 0.19133,0.68153 0.68932,1.79378 1.09547,2.4467 0.12644,0.20327 0.19944,0.38835 0.16222,0.4113 -0.16869,0.10397 -3.06878,0.52899 -4.9506,0.72552 l -0.5519,0.0576 z"
         id="path106"
         transform="scale(0.26458333)" />
      <g
         id="g108"
         transform="matrix(1.0005261,0,0,0.81204558,-0.02630833,6.4440702)">
        <g
           id="g42">
          <g
             id="g41">
            <g
               id="g40">
              <g
                 id="g39">
                <g
                   id="g38">
                  <g
                     id="g37">
                    <g
                       id="g36">
                      <g
                         id="g35">
                        <path
                           style="fill:none;fill-rule:evenodd;stroke:#000000;stroke-width:1.07638;stroke-dasharray:none;stroke-opacity:1"
                           id="path8"
                           transform="scale(1,-1)"
                           d="M 75.240707,-32.837833 A 25.24086,30.993673 0 0 1 50.061357,-1.8442521 25.24086,30.993673 0 0 1 24.759287,-32.686775"
                           sodipodi:type="arc"
                           sodipodi:arc-type="arc"
                           sodipodi:open="true"
                           sodipodi:start="0"
                           sodipodi:end="3.1367188"
                           sodipodi:ry="30.993673"
                           sodipodi:rx="25.24086"
                           sodipodi:cy="-32.837833"
                           sodipodi:cx="49.999847" />
                        <path
                           style="fill:none;fill-rule:evenodd;stroke:#000000;stroke-width:1;stroke-dasharray:none;stroke-opacity:1"
                           d="m 50.806362,1.7620647 c 5.313402,4.4782564 10.626743,9.2306333 13.866102,15.5287083 3.039243,4.573633 4.295097,10.389597 4.001078,15.838506 M 49.193645,1.7620647 C 43.880243,6.2403211 38.566902,10.992698 35.327543,17.290773 32.2883,21.864406 31.032446,27.68037 31.326465,33.129279"
                           id="path9"
                           sodipodi:nodetypes="ccc"
                           inkscape:path-effect="#path-effect14"
                           inkscape:original-d="m 50.806362,1.7620647 c 5.313402,4.4782564 10.626743,9.2306333 13.866102,15.5287083 3.039243,4.573633 4.295097,10.389597 4.001078,15.838506" />
                        <path
                           style="fill:none;fill-rule:evenodd;stroke:#000000;stroke-width:1;stroke-dasharray:none;stroke-opacity:1"
                           d="M 50.616239,2.2479012 C 58.196617,10.45728 62.940492,22.104015 62.795609,33.335836 M 49.383768,2.2479012 C 41.80339,10.45728 37.059515,22.104015 37.204398,33.335836"
                           id="path10"
                           sodipodi:nodetypes="cc"
                           inkscape:path-effect="#path-effect13"
                           inkscape:original-d="M 50.616239,2.2479012 C 58.196617,10.45728 62.940492,22.104015 62.795609,33.335836" />
                        <path
                           style="fill:none;fill-rule:evenodd;stroke:#000000;stroke-width:1;stroke-dasharray:none;stroke-opacity:1"
                           d="M 50.021656,2.1508313 C 51.825344,11.784545 55.178641,23.56151 55.074211,33.46549 M 49.978351,2.1508313 C 48.174663,11.784545 44.821366,23.56151 44.925796,33.46549"
                           id="path11"
                           sodipodi:nodetypes="cc"
                           inkscape:path-effect="#path-effect12"
                           inkscape:original-d="M 50.021656,2.1508313 C 51.825344,11.784545 55.178641,23.56151 55.074211,33.46549" />
                        <path
                           style="fill:none;fill-rule:evenodd;stroke:#000000;stroke-width:1;stroke-dasharray:none;stroke-opacity:1"
                           d="m 24.238357,32.85676 c 16.93558,1.006466 34.585457,1.58809 51.516496,0.04911"
                           id="path12"
                           sodipodi:nodetypes="cc" />
                      </g>
                    </g>
                  </g>
                </g>
              </g>
            </g>
          </g>
        </g>
        <path
           style="fill:#4d4d4d;fill-opacity:1;fill-rule:evenodd;stroke:#000000;stroke-width:2.67253;stroke-dasharray:none;stroke-opacity:1"
           d="m 261.42029,113.36601 c -0.4797,-12.50137 -2.41035,-22.111448 -6.54347,-32.571141 -3.37125,-8.531618 -13.38399,-25.893235 -20.08873,-34.832928 -5.68902,-7.585385 -20.6038,-23.261316 -29.26563,-30.759145 -2.92034,-2.527907 -7.1101,-5.3884328 -6.82587,-5.4924818 1.4244,-0.5214364 17.10053,4.3846278 22.88485,7.1246878 10.02568,4.749208 16.97049,9.781158 25.94284,18.7972 20.42898,20.528462 31.69088,47.086535 34.26029,80.793328 l 0.46627,6.11687 -6.9519,0.45198 c -3.82356,0.24858 -8.41688,0.62189 -10.2074,0.82956 l -3.25548,0.3776 z m -144.88779,0 c 0.4797,-12.50137 2.41035,-22.111448 6.54347,-32.571141 3.37125,-8.531618 13.38399,-25.893235 20.08873,-34.832928 5.68902,-7.585385 20.6038,-23.261316 29.26563,-30.759145 2.92034,-2.527907 7.1101,-5.3884328 6.82587,-5.4924818 -1.4244,-0.5214364 -17.10053,4.3846278 -22.88485,7.1246878 -10.02568,4.749208 -16.97049,9.781158 -25.94284,18.7972 -20.42898,20.528462 -31.690884,47.086535 -34.260294,80.793328 l -0.46627,6.11687 6.951904,0.45198 c 3.82356,0.24858 8.41688,0.62189 10.2074,0.82956 l 3.25548,0.3776 z"
           id="path51"
           transform="scale(0.26458333)"
           sodipodi:nodetypes="sssssssscsscs"
           inkscape:path-effect="#path-effect58"
           inkscape:original-d="m 261.42029,113.36601 c -0.4797,-12.50137 -2.41035,-22.111448 -6.54347,-32.571141 -3.37125,-8.531618 -13.38399,-25.893235 -20.08873,-34.832928 -5.68902,-7.585385 -20.6038,-23.261316 -29.26563,-30.759145 -2.92034,-2.527907 -7.1101,-5.3884328 -6.82587,-5.4924818 1.4244,-0.5214364 17.10053,4.3846278 22.88485,7.1246878 10.02568,4.749208 16.97049,9.781158 25.94284,18.7972 20.42898,20.528462 31.69088,47.086535 34.26029,80.793328 l 0.46627,6.11687 -6.9519,0.45198 c -3.82356,0.24858 -8.41688,0.62189 -10.2074,0.82956 l -3.25548,0.3776 z" />
        <path
           style="fill:#4d4d4d;fill-opacity:1;fill-rule:evenodd;stroke:#000000;stroke-width:2.67253;stroke-dasharray:none;stroke-opacity:1"
           d="m 210.43992,124.39296 c -0.23606,-0.61517 -0.42921,-3.76344 -0.42921,-6.99614 0,-15.40285 -3.15033,-35.668581 -12.08503,-77.74157 -2.71876,-12.802488 -6.51135,-26.595554 -6.39396,-27.205147 0.26304,-1.365838 9.50185,11.030951 15.59254,20.430362 4.9719,7.67286 12.36832,21.88057 15.51624,29.805002 7.37012,18.553205 12.10837,40.427173 12.11569,55.931693 l 0.003,6.89429 h -11.94516 c -10.24013,0 -12.00643,-0.15965 -12.37437,-1.11849 z m -42.92705,0 c 0.23606,-0.61517 0.42921,-3.76344 0.42921,-6.99614 0,-15.40285 3.15033,-35.668581 12.08503,-77.74157 2.71876,-12.802488 6.51135,-26.595554 6.39396,-27.205147 -0.26304,-1.365838 -9.50185,11.030951 -15.59254,20.430362 -4.9719,7.67286 -12.36832,21.88057 -15.51624,29.805002 -7.37012,18.553205 -12.10837,40.427173 -12.11569,55.931693 l -0.003,6.89429 h 11.94516 c 10.24013,0 12.00643,-0.15965 12.37437,-1.11849 z"
           id="path52"
           transform="scale(0.26458333)"
           sodipodi:nodetypes="csssssccscc"
           inkscape:path-effect="#path-effect60"
           inkscape:original-d="m 210.43992,124.39296 c -0.23606,-0.61517 -0.42921,-3.76344 -0.42921,-6.99614 0,-15.40285 -3.15033,-35.668581 -12.08503,-77.74157 -2.71876,-12.802488 -6.51135,-26.595554 -6.39396,-27.205147 0.26304,-1.365838 9.50185,11.030951 15.59254,20.430362 4.9719,7.67286 12.36832,21.88057 15.51624,29.805002 7.37012,18.553205 12.10837,40.427173 12.11569,55.931693 l 0.003,6.89429 h -11.94516 c -10.24013,0 -12.00643,-0.15965 -12.37437,-1.11849 z" />
        <path
           style="fill:#552200;fill-opacity:1;fill-rule:evenodd;stroke:#000000;stroke-width:0.944882;stroke-dasharray:none;stroke-opacity:1"
           d="m 175.8125,125.68795 -4.0625,-0.0753 0.003,-1.9313 c 0.0107,-5.96961 0.82744,-17.14385 1.88624,-25.80631 1.76952,-14.47724 3.96798,-26.34741 10.85784,-58.625 2.31867,-10.8625 4.26286,-19.975 4.32042,-20.25 0.0811,-0.387295 0.5793,-1.829685 0.69165,-1.539214 0.24631,0.636809 8.12702,41.367669 9.61299,48.914214 4.41387,22.416112 6.38269,37.95009 7.01044,55.3125 l 0.15141,4.1875 -13.20473,-0.0559 c -7.2626,-0.0307 -15.03285,-0.0898 -17.26722,-0.13119 z"
           id="path57"
           transform="scale(0.26458333)"
           sodipodi:nodetypes="cccsssssscccc" />
        <path
           style="fill:#552200;fill-opacity:1;fill-rule:evenodd;stroke:#000000;stroke-width:0.944882;stroke-dasharray:none;stroke-opacity:1"
           d="m 239.24879,121.25 c -9.6e-4,-4.6381 -0.30001,-9.20448 -1.00963,-15.41622 -3.33912,-29.229738 -15.63385,-60.151853 -33.45955,-84.153153 -1.25378,-1.688155 -4.48932,-5.344413 -4.48932,-5.424261 0,-0.182514 5.53855,5.055161 11.13002,10.323763 12.17252,11.46964 22.76738,24.526241 29.05256,35.802996 0.87884,1.57678 2.10894,3.710625 2.73357,4.741875 8.10563,13.38225 12.32343,25.990112 13.93923,41.66724 0.42274,4.10167 0.62783,15.13944 0.28765,15.48163 -0.16962,0.17063 -9.00736,0.67336 -15.74601,0.8957 l -2.4377,0.0804 z m -100.54479,0 c 9.6e-4,-4.6381 0.30001,-9.20448 1.00963,-15.41622 3.33912,-29.229738 15.63385,-60.151853 33.45955,-84.153153 1.25378,-1.688155 4.48932,-5.344413 4.48932,-5.424261 0,-0.182514 -5.53855,5.055161 -11.13002,10.323763 -12.17252,11.46964 -22.76738,24.526241 -29.05256,35.802996 -0.87884,1.57678 -2.10894,3.710625 -2.73357,4.741875 -8.10563,13.38225 -12.32343,25.990112 -13.93923,41.66724 -0.42274,4.10167 -0.62783,15.13944 -0.28765,15.48163 0.16962,0.17063 9.00736,0.67336 15.74601,0.8957 l 2.4377,0.0804 z"
           id="path58"
           transform="scale(0.26458333)"
           sodipodi:nodetypes="sssssssssscs"
           inkscape:path-effect="#path-effect59"
           inkscape:original-d="m 239.24879,121.25 c -9.6e-4,-4.6381 -0.30001,-9.20448 -1.00963,-15.41622 -3.33912,-29.229738 -15.63385,-60.151853 -33.45955,-84.153153 -1.25378,-1.688155 -4.48932,-5.344413 -4.48932,-5.424261 0,-0.182514 5.53855,5.055161 11.13002,10.323763 12.17252,11.46964 22.76738,24.526241 29.05256,35.802996 0.87884,1.57678 2.10894,3.710625 2.73357,4.741875 8.10563,13.38225 12.32343,25.990112 13.93923,41.66724 0.42274,4.10167 0.62783,15.13944 0.28765,15.48163 -0.16962,0.17063 -9.00736,0.67336 -15.74601,0.8957 l -2.4377,0.0804 z" />
        <ellipse
           style="fill:#000000;fill-opacity:1;fill-rule:evenodd;stroke:#000000;stroke-width:1;stroke-dasharray:none;stroke-opacity:0.983759"
           id="path107"
           cx="50.046223"
           cy="2.9934187"
           rx="3.6482289"
           ry="2.0579753" />
      </g>
      <path
         style="fill:none;stroke:#000000;stroke-width:3.77953;stroke-opacity:0.983759"
         d="m 217.78888,233.34523 c 3.33997,9.2172 5.36167,18.83807 5.54434,28.62964 l 0.11198,1.06885 m -63.28132,-29.69849 c -3.33997,9.2172 -5.36167,18.83807 -5.54434,28.62964 l -0.11198,1.06885"
         id="path2"
         transform="scale(0.26458333)"
         inkscape:path-effect="#path-effect5"
         inkscape:original-d="m 217.78888,233.34523 c 3.33997,9.2172 5.36167,18.83807 5.54434,28.62964 l 0.11198,1.06885" />
    </g>
  </g>
</svg>
